<?xml version="1.0" encoding="UTF-8"?>
<svg width="10px" height="10px" viewBox="0 0 10 10" version="1.1" xmlns="http://www.w3.org/2000/svg" xmlns:xlink="http://www.w3.org/1999/xlink">
    <!-- Generator: sketchtool 58 (101010) - https://sketch.com -->
    <title>8D27FF5B-09DF-4C75-BEDB-C85ADB7CF0FD</title>
    <desc>Created with sketchtool.</desc>
    <g id="Aggregator_Admin_Flow" stroke="none" stroke-width="1" fill="none" fill-rule="evenodd">
        <g id="6.7-Total-sell-leads" transform="translate(-184.000000, -203.000000)" fill="#A1B8D7" fill-rule="nonzero">
            <g id="Group" transform="translate(8.000000, 139.000000)">
                <g id="calendar" transform="translate(176.000000, 64.000000)">
                    <path d="M8.75,1.25 L7.5,1.25 L7.5,0.625 C7.5,0.279459241 7.22003632,0 6.875,0 C6.52996368,0 6.25,0.279459241 6.25,0.625 L6.25,1.25 L3.75,1.25 L3.75,0.625 C3.75,0.279459241 3.47003632,0 3.125,0 C2.77996368,0 2.5,0.279459241 2.5,0.625 L2.5,1.25 L1.25,1.25 C0.559927361,1.25 0,1.80992736 0,2.5 L0,8.75 C0,9.44007264 0.559927361,10 1.25,10 L8.75,10 C9.44007264,10 10,9.44007264 10,8.75 L10,2.5 C10,1.80942292 9.44007264,1.25 8.75,1.25 Z M8.75,8.75 L1.25,8.75 L1.25,3.43724778 L8.75,3.43724778 L8.75,8.75 Z" id="Shape"></path>
                </g>
            </g>
        </g>
    </g>
</svg>