<?xml version="1.0" encoding="UTF-8"?>
<svg width="13px" height="16px" viewBox="0 0 13 16" version="1.1" xmlns="http://www.w3.org/2000/svg" xmlns:xlink="http://www.w3.org/1999/xlink">
    <!-- Generator: sketchtool 58 (101010) - https://sketch.com -->
    <title>A5C452A3-0A06-4CAA-B2BF-1C8ED0E4DBED</title>
    <desc>Created with sketchtool.</desc>
    <g id="Total-Flow" stroke="none" stroke-width="1" fill="none" fill-rule="evenodd">
        <g id="7.0-Order-details" transform="translate(-325.000000, -394.000000)" fill="#7F7F7F" fill-rule="nonzero">
            <g id="Group-2" transform="translate(0.000000, 237.000000)">
                <g id="tick-green-2" transform="translate(27.000000, 148.000000)">
                    <g id="icon/12px/delete-icon/16px/delete" transform="translate(297.000000, 9.000000)">
                        <path d="M5.83571437,4.77534944e-05 L9.16428566,4.77534944e-05 C9.55831986,-0.00312313434 9.93727211,0.151735412 10.2162149,0.42983677 C10.4602899,0.673303524 10.6100821,0.993309908 10.6422451,1.33337573 L10.6487594,1.48018169 L10.6487594,1.94856293 L12.5679738,1.94856293 C13.2872217,1.94870929 13.894746,2.48193206 13.9878733,3.19474973 C14.075043,3.86315355 13.6846242,4.49489362 13.062747,4.72321179 L12.9353584,4.76338779 L12.9353584,13.9953283 C12.9353584,14.5409925 12.7351931,15.0534308 12.3855262,15.4211101 C12.076273,15.7488468 11.659192,15.9506411 11.2141899,15.9920549 L11.0461613,16 L3.95383869,16 C3.44690954,15.9991218 2.96253005,15.7898139 2.61447384,15.4211101 C2.3036588,15.094284 2.11096855,14.6530805 2.07198571,14.1758328 L2.06464168,13.9953283 L2.06464168,4.76338779 C1.36955423,4.57896268 0.919145758,3.90771381 1.01212667,3.19474973 C1.09943361,2.52648316 1.63884719,2.01606368 2.29857481,1.95475106 L2.43202621,1.94856293 L4.35124071,1.94856293 L4.35124071,1.48018169 C4.3490443,1.08630234 4.50484229,0.708084489 4.78378511,0.42983677 C5.02786007,0.186498082 5.34850475,0.0375171711 5.68882439,0.00619835765 L5.83571437,4.77534944e-05 L9.16428566,4.77534944e-05 Z M12.1856538,4.79632084 L2.81434628,4.79632084 L2.81434628,13.9953283 C2.81434628,14.656185 3.25255385,15.1811928 3.83542301,15.2442373 L3.95383869,15.25059 L11.0461613,15.25059 C11.6470141,15.25059 12.122775,14.7668858 12.179898,14.1255917 L12.1856538,13.9953283 L12.1856538,4.79632084 Z M9.7116286,5.79690026 C9.892795,5.79690026 10.0439165,5.92532546 10.0788661,6.09608278 L10.0864809,6.17160524 L10.0864809,13.2535295 C10.0864809,13.4603491 9.91867591,13.6282345 9.7116286,13.6282345 C9.53046218,13.6282345 9.3793407,13.4996973 9.34439106,13.32901 L9.3367763,13.2535295 L9.3367763,6.17160524 C9.3367763,5.9646393 9.50458126,5.79690026 9.7116286,5.79690026 Z M5.28837146,5.79690026 C5.46953786,5.79690026 5.62065935,5.92532546 5.655609,6.09608278 L5.66322376,6.17160524 L5.66322376,13.2535295 C5.66322376,13.4603491 5.49541877,13.6282345 5.28837146,13.6282345 C5.10720504,13.6282345 4.95608356,13.4996973 4.92113392,13.32901 L4.91351916,13.2535295 L4.91351916,6.17160524 C4.91351916,5.9646393 5.08132412,5.79690026 5.28837146,5.79690026 Z M7.50000003,5.79690026 C7.70704734,5.79690026 7.87485233,5.9646393 7.87485233,6.17160524 L7.87485233,6.17160524 L7.87485233,13.2535295 C7.87485233,13.4603491 7.70704734,13.6282345 7.50000003,13.6282345 C7.29295269,13.6282345 7.12514773,13.4603491 7.12514773,13.2535295 L7.12514773,13.2535295 L7.12514773,6.17160524 C7.12514773,5.9646393 7.29295269,5.79690026 7.50000003,5.79690026 Z M12.5679738,2.6979729 L2.43202621,2.6979729 C2.05937029,2.6979729 1.75729207,2.99993244 1.75729207,3.37244188 C1.75729207,3.71108683 2.00694349,3.99142607 2.33231657,4.03959812 L2.43202621,4.04691086 L12.5679738,4.04691086 C12.9406297,4.04691086 13.242708,3.74495133 13.242708,3.37244188 C13.242708,2.99993244 12.9406297,2.6979729 12.5679738,2.6979729 Z M9.16428566,0.749506964 L5.83571437,0.749506964 C5.64038116,0.746140464 5.45207647,0.821813336 5.31370327,0.959546684 C5.20288754,1.06973336 5.13161875,1.21195733 5.10881837,1.36433579 L5.10094531,1.48018169 L5.10094531,1.94856293 L9.89905475,1.94856293 L9.89905475,1.48018169 C9.901544,1.28507164 9.82481642,1.09713367 9.68629676,0.959546684 C9.54792356,0.821813336 9.35961883,0.746140464 9.16428566,0.749506964 Z" id="Combined-Shape"></path>
                    </g>
                </g>
            </g>
        </g>
    </g>
</svg>