<?xml version="1.0" encoding="UTF-8"?>
<svg width="10px" height="12px" viewBox="0 0 10 12" version="1.1" xmlns="http://www.w3.org/2000/svg" xmlns:xlink="http://www.w3.org/1999/xlink">
    <!-- Generator: sketchtool 58 (101010) - https://sketch.com -->
    <title>CA6E0DD5-CFC8-4DCC-AB30-E9AF3EEDBDA5</title>
    <desc>Created with sketchtool.</desc>
    <g id="Total-Flow" stroke="none" stroke-width="1" fill="none" fill-rule="evenodd">
        <g id="6.5-Non---Trade-Hours" transform="translate(-153.000000, -696.000000)" fill="#FFFFFF">
            <g id="Group-8" transform="translate(0.000000, 671.000000)">
                <g id="calendar--copy-icon/10px/location" transform="translate(152.000000, 25.000000)">
                    <path d="M6,0 C3.6841639,0 1.8,1.79444531 1.8,4 C1.8,4.66211719 1.97381568,5.31860156 2.30424511,5.90088281 L5.77032115,11.8710938 C5.81646364,11.9506875 5.90439276,12 6,12 C6.09560724,12 6.18353636,11.9506875 6.22967885,11.8710938 L9.69703458,5.89891406 C10.0261843,5.31860156 10.2,4.66209375 10.2,3.99998437 C10.2,1.79444531 8.3158361,0 6,0 Z M6,6.00000014 C4.84208195,6.00000014 3.9000123,5.10278919 3.9000123,4.00001569 C3.9000123,2.89722664 4.84208195,2.00001569 6,2.00001569 C7.15791805,2.00001569 8.0999877,2.89722664 8.0999877,4.00001569 C8.0999877,5.10278919 7.15791805,6.00000014 6,6.00000014 Z" id="Shape"></path>
                </g>
            </g>
        </g>
    </g>
</svg>