<?xml version="1.0" encoding="UTF-8"?>
<svg width="100px" height="100px" viewBox="0 0 100 100" version="1.1" xmlns="http://www.w3.org/2000/svg" xmlns:xlink="http://www.w3.org/1999/xlink">
    <!-- Generator: sketchtool 58 (101010) - https://sketch.com -->
    <title>E3B2B629-B312-480E-93AB-B6D26C2AE1B1</title>
    <desc>Created with sketchtool.</desc>
    <g id="Total-Flow" stroke="none" stroke-width="1" fill="none" fill-rule="evenodd">
        <g id="7.0-Total-buy-leads_Upcoming" transform="translate(-24.000000, -101.000000)" fill-rule="nonzero">
            <g id="man" transform="translate(24.000000, 101.000000)">
                <circle id="Oval" fill="#FFFFFF" cx="50" cy="50" r="50"></circle>
                <g id="Group" transform="translate(9.448819, 65.748031)">
                    <path d="M40.7874016,5.7480315 C40.7086614,5.7480315 40.6299213,5.82677165 40.4724409,5.82677165 C40.3937008,5.82677165 40.3149606,5.7480315 40.1574803,5.7480315 L40.7874016,5.7480315 Z" id="Path" fill="#E6E9EE"></path>
                    <path d="M80.7874016,13.7795276 C71.7322835,26.1417323 57.007874,34.2519685 40.4724409,34.2519685 C23.9370079,34.2519685 9.29133858,26.2204724 0.157480315,13.7795276 C7.24409449,6.22047244 16.8503937,2.20472441 24.8818898,0.157480315 C24.1732283,5.90551181 27.1653543,13.6220472 27.2440945,13.3858268 C30.2362205,6.45669291 40.3937008,5.82677165 40.3937008,5.82677165 C40.3937008,5.82677165 50.5511811,6.37795276 53.6220472,13.3858268 C53.7007874,13.5433071 56.6929134,5.90551181 55.984252,0.157480315 C64.0944882,2.20472441 73.7007874,6.22047244 80.7874016,13.7795276 Z" id="Path" fill="#C7C9CB"></path>
                </g>
                <path d="M62.3622047,60.6299213 L62.3622047,60.6299213 C62.3622047,61.6535433 61.7322835,67.0866142 50.2362205,71.496063 L49.6062992,71.496063 C38.1102362,67.0866142 37.480315,61.6535433 37.480315,60.6299213 L37.480315,60.6299213 C37.5590551,58.5826772 38.0314961,56.5354331 38.8976378,54.6456693 C42.0472441,58.1889764 45.8267717,60.5511811 49.9212598,60.5511811 C53.9370079,60.5511811 57.7952756,58.2677165 60.9448819,54.6456693 C61.8110236,56.5354331 62.3622047,58.5826772 62.3622047,60.6299213 Z" id="Path" fill="#FED198"></path>
                <g id="Group" transform="translate(34.251969, 60.433071)" fill="#FFFFFF">
                    <path d="M28.1102362,0.0393700787 C28.1102362,0.0393700787 28.6614173,6.33858268 15.6692913,11.1417323 C15.6692913,11.1417323 25.8267717,11.6929134 28.8976378,18.7007874 C28.976378,19.015748 34.8818898,3.74015748 28.1102362,0.0393700787 Z" id="Path"></path>
                    <path d="M3.22834646,0.0393700787 C-3.46456693,3.74015748 2.36220472,18.9370079 2.51968504,18.7007874 C5.51181102,11.7716535 15.7480315,11.1417323 15.7480315,11.1417323 C2.67716535,6.33858268 3.22834646,0.0393700787 3.22834646,0.0393700787 Z" id="Path"></path>
                </g>
                <path d="M61.5748031,56.2204724 C58.2677165,59.7637795 54.3307087,62.0472441 49.9212598,62.0472441 C45.511811,62.0472441 41.5748031,59.7637795 38.2677165,56.2204724 C38.4251969,55.6692913 38.6614173,55.1181102 38.8976378,54.6456693 C42.0472441,58.1889764 45.8267717,60.5511811 49.9212598,60.5511811 C54.015748,60.5511811 57.7952756,58.2677165 60.9448819,54.6456693 C61.1811024,55.1181102 61.4173228,55.6692913 61.5748031,56.2204724 Z" id="Path" fill="#F0B97D"></path>
                <path d="M71.4173228,44.1732283 C69.7637795,46.9291339 67.2440945,48.5826772 65.3543307,48.2677165 C61.5748031,55.2755906 56.0629921,60.4724409 49.9212598,60.4724409 C43.7795276,60.4724409 38.2677165,55.1968504 34.488189,48.2677165 C32.5984252,48.503937 30.0787402,46.9291339 28.4251969,44.1732283 C26.4566929,40.9448819 26.3779528,37.4015748 28.2677165,36.2204724 C28.7401575,35.984252 29.2125984,35.8267717 29.7637795,35.9055118 C31.023622,39.1338583 32.7559055,41.1023622 32.7559055,41.1023622 C30.9448819,31.1023622 38.3464567,30 37.0866142,20.3937008 C37.0866142,20.3937008 41.7322835,30.7086614 55.0393701,23.4645669 L54.015748,25.4330709 C72.5984252,21.2598425 66.3779528,43.1496063 66.2204724,43.7007874 C68.3464567,41.023622 69.6850394,38.3464567 70.4724409,35.9055118 C70.7874016,35.9055118 71.1811024,36.0629921 71.4173228,36.2204724 C73.4645669,37.3228346 73.3858268,40.9448819 71.4173228,44.1732283 Z" id="Path" fill="#FED198"></path>
                <path d="M60.6299213,10 C62.1259843,9.84251969 64.5669291,11.1811024 64.5669291,11.1811024 C57.8740157,3.54330709 46.9291339,8.42519685 46.9291339,8.42519685 C50.6299213,5.27559055 53.9370079,5.59055118 53.9370079,5.59055118 C38.2677165,3.22834646 35.5905512,12.5984252 35.5905512,12.5984252 C34.8818898,11.496063 34.8818898,9.92125984 34.9606299,9.13385827 C33.8582677,11.023622 35.0393701,14.8031496 35.0393701,14.8031496 C33.9370079,12.0472441 30.0787402,12.519685 30.0787402,12.519685 C33.3858268,13.0708661 33.9370079,15.1181102 33.9370079,15.1181102 C25.6692913,18.1889764 27.0866142,26.7716535 27.0866142,26.7716535 L29.0551181,24.4094488 C26.6141732,33.7795276 32.8346457,41.023622 32.8346457,41.023622 C31.023622,31.023622 38.4251969,29.9212598 37.1653543,20.3149606 C37.1653543,20.3149606 41.8110236,30.6299213 55.1181102,23.3858268 L54.0944882,25.3543307 C72.9133858,21.1023622 66.2992126,43.7007874 66.2992126,43.7007874 C72.992126,35.1968504 71.9685039,26.4566929 71.9685039,26.4566929 L72.7559055,29.6062992 C74.8818898,15.4330709 60.6299213,10 60.6299213,10 Z" id="Path" fill="#666666"></path>
            </g>
        </g>
    </g>
</svg>