<?xml version="1.0" encoding="UTF-8"?>
<svg width="18px" height="18px" viewBox="0 0 18 18" version="1.1" xmlns="http://www.w3.org/2000/svg" xmlns:xlink="http://www.w3.org/1999/xlink">
    <!-- Generator: sketchtool 58 (101010) - https://sketch.com -->
    <title>362F4195-8E47-4FAE-991E-2BD1B15F2DA7</title>
    <desc>Created with sketchtool.</desc>
    <g id="Total-Flow" stroke="none" stroke-width="1" fill="none" fill-rule="evenodd" opacity="0.5">
        <g id="5.5-Schedule-non---trade-hour" transform="translate(-344.000000, -367.000000)" fill="#0048A8" stroke="#0046AE" stroke-width="0.4">
            <g id="plus" transform="translate(345.000000, 368.000000)">
                <path d="M8,0 C12.4110769,0 16,3.58861538 16,8 C16,12.4113846 12.4110769,16 8,16 C3.58892308,16 0,12.4113846 0,8 C0,3.58861538 3.58892308,0 8,0 Z M8,0.615384615 C3.92830769,0.615384615 0.615384615,3.92830769 0.615384615,8 C0.615384615,12.0716923 3.92830769,15.3846154 8,15.3846154 C12.0716923,15.3846154 15.3846154,12.0716923 15.3846154,8 C15.3846154,3.92830769 12.0716923,0.615384615 8,0.615384615 Z M8,4 C8.16984615,4 8.30769231,4.13753846 8.30769231,4.30769231 L8.30769231,4.30769231 L8.30769231,7.69230769 L11.8461538,7.69230769 C12.016,7.69230769 12.1538462,7.82984615 12.1538462,8 C12.1538462,8.17015385 12.016,8.30769231 11.8461538,8.30769231 L11.8461538,8.30769231 L8.30769231,8.30769231 L8.30769231,12 C8.30769231,12.1701538 8.16984615,12.3076923 8,12.3076923 C7.83015385,12.3076923 7.69230769,12.1701538 7.69230769,12 L7.69230769,12 L7.69230769,8.30769231 L4.15384615,8.30769231 C3.984,8.30769231 3.84615385,8.17015385 3.84615385,8 C3.84615385,7.82984615 3.984,7.69230769 4.15384615,7.69230769 L4.15384615,7.69230769 L7.69230769,7.69230769 L7.69230769,4.30769231 C7.69230769,4.13753846 7.83015385,4 8,4 Z" id="Combined-Shape"></path>
            </g>
        </g>
    </g>
</svg>