<?xml version="1.0" encoding="UTF-8"?>
<svg width="24px" height="24px" viewBox="0 0 24 24" version="1.1" xmlns="http://www.w3.org/2000/svg" xmlns:xlink="http://www.w3.org/1999/xlink">
    <!-- Generator: sketchtool 58 (101010) - https://sketch.com -->
    <title>C09CDFD9-DABB-4D76-B1E3-5CC8C84436C2</title>
    <desc>Created with sketchtool.</desc>
    <g id="Total-Flow" stroke="none" stroke-width="1" fill="none" fill-rule="evenodd">
        <g id="7.0-Order-details" transform="translate(-364.000000, -390.000000)">
            <g id="Group-2" transform="translate(0.000000, 237.000000)">
                <g id="tick-green-2" transform="translate(27.000000, 148.000000)">
                    <g id="icon/40px/success" transform="translate(337.000000, 5.000000)">
                        <g id="Group-4">
                            <rect id="Rectangle" fill="#63B508" transform="translate(12.000000, 12.000000) scale(-1, -1) translate(-12.000000, -12.000000) " x="0" y="0" width="24" height="24" rx="12"></rect>
                            <path d="M7.51863141,11.9204388 C7.15761418,11.5560018 6.587982,11.5727403 6.24632232,11.9578254 C5.90466264,12.3429105 5.92035503,12.9505182 6.28137226,13.3149552 L9.473438,16.5372584 C9.82047272,16.8875805 10.3636624,16.8875805 10.7106971,16.5372584 L18.3186277,8.85726027 C18.679645,8.49282324 18.6953374,7.88521552 18.3536777,7.50013044 C18.012018,7.11504536 17.4423858,7.09830681 17.0813686,7.46274384 L10.0920676,14.5182524 L7.51863141,11.9204388 Z" id="Path-2" fill="#FFFFFF"></path>
                        </g>
                    </g>
                </g>
            </g>
        </g>
    </g>
</svg>