<?xml version="1.0" encoding="UTF-8"?>
<svg width="40px" height="40px" viewBox="0 0 40 40" version="1.1" xmlns="http://www.w3.org/2000/svg" xmlns:xlink="http://www.w3.org/1999/xlink">
    <!-- Generator: sketchtool 60.1 (101010) - https://sketch.com -->
    <title>675A75BF-8CD7-4415-8804-403DBED2EE7B</title>
    <desc>Created with sketchtool.</desc>
    <g id="Asset-Artboard-Page" stroke="none" stroke-width="1" fill="none" fill-rule="evenodd">
        <g id="icon/40px/success-copy-icon/40px/404" fill="#D0021B" fill-rule="nonzero">
            <g id="prohibition" transform="translate(2.000000, 2.000000)">
                <path d="M30.6795959,5.30447386 C27.1969299,1.8223572 22.5958557,0 17.9947815,0 C13.393982,0 8.79263304,1.8223572 5.30996702,5.30447386 C-1.76989746,12.3846131 -1.76989746,23.5942383 5.30996702,30.6741028 C8.8137817,34.1776428 13.393982,36 17.9947815,36 C22.5958557,36 27.1760559,34.1776428 30.6795959,30.6741028 C37.7597351,23.5942383 37.7597351,12.3846131 30.6795959,5.30447386 Z M17.9947815,31.7296143 C14.4703674,31.7296143 10.9662781,30.3576965 8.28616331,27.6981812 C3.53732302,22.9284668 2.92510983,15.5201111 6.80850218,10.0324402 L17.9947815,21.2187195 L25.9519043,29.1755676 C23.5458984,30.8853149 20.7600403,31.7296143 17.9947815,31.7296143 Z M29.1810608,25.9464111 L17.9947815,14.7601318 L10.0376587,6.80328366 C12.4439392,5.09353636 15.2297973,4.24923708 17.9947815,4.24923708 C21.5194702,4.24923708 25.0232849,5.62115475 27.7036743,8.28067015 C32.4525146,13.0506592 33.0647278,20.4587402 29.1810608,25.9464111 Z" id="Shape"></path>
            </g>
        </g>
    </g>
</svg>