<?xml version="1.0" encoding="UTF-8"?>
<svg width="20px" height="20px" viewBox="0 0 20 20" version="1.1" xmlns="http://www.w3.org/2000/svg" xmlns:xlink="http://www.w3.org/1999/xlink">
    <!-- Generator: sketchtool 59.1 (101010) - https://sketch.com -->
    <title>6FD3BA9E-948D-449D-AB48-F6E9C3C8C3B1</title>
    <desc>Created with sketchtool.</desc>
    <g id="Total-Flow" stroke="none" stroke-width="1" fill="none" fill-rule="evenodd">
        <g id="Navigation-2" transform="translate(-34.000000, -379.000000)" fill-rule="nonzero">
            <g id="Group-24">
                <g id="Group-22" transform="translate(32.000000, 377.000000)">
                    <g id="icon/40px/sell-copy-4-icon/40px/add-resources">
                        <g id="plus-(1)" transform="translate(2.400000, 2.400000)">
                            <path d="M9.6,1 C4.85885905,1 1,4.8587566 1,9.6 C1,14.3412434 4.85885905,18.2 9.6,18.2 C14.3411409,18.2 18.2,14.3412434 18.2,9.6 C18.2,4.8587566 14.3411409,1 9.6,1 Z" id="Shape" stroke="#7F7F7F" stroke-width="2"></path>
                            <path d="M14.2153842,10.3384614 L10.3384612,10.3384614 L10.3384612,14.3999997 C10.3384612,14.8076304 10.0076305,15.1384612 9.59999971,15.1384612 C9.19236896,15.1384612 8.8615382,14.8076304 8.8615382,14.3999997 L8.8615382,10.3384614 L4.98461525,10.3384614 C4.57698449,10.3384614 4.24615374,10.0076306 4.24615374,9.59999985 C4.24615374,9.1923691 4.57698449,8.86153834 4.98461525,8.86153834 L8.8615382,8.86153834 L8.8615382,5.16923077 C8.8615382,4.76160001 9.19236896,4.43076925 9.59999971,4.43076925 C10.0076305,4.43076925 10.3384612,4.76160001 10.3384612,5.16923077 L10.3384612,8.86153834 L14.2153842,8.86153834 C14.6230149,8.86153834 14.9538457,9.1923691 14.9538457,9.59999985 C14.9538457,10.0076306 14.6230149,10.3384614 14.2153842,10.3384614 Z" id="Path" fill="#7F7F7F"></path>
                        </g>
                    </g>
                </g>
            </g>
        </g>
    </g>
</svg>