<?xml version="1.0" encoding="UTF-8"?>
<svg width="52px" height="32px" viewBox="0 0 52 32" version="1.1" xmlns="http://www.w3.org/2000/svg" xmlns:xlink="http://www.w3.org/1999/xlink">
    <!-- Generator: Sketch 59.1 (86144) - https://sketch.com -->
    <title>All</title>
    <desc>Created with Sketch.</desc>
    <g id="Total-Flow" stroke="none" stroke-width="1" fill="none" fill-rule="evenodd">
        <g id="All">
            <rect id="Rectangle" fill="#0048A8" x="0" y="0" width="52" height="32" rx="16"></rect>
            <g id="icon/16px/all" transform="translate(18.000000, 8.000000)" fill="#FFFFFF">
                <path d="M10.2549133,4.19839026 C10.508428,3.93386991 10.9194565,3.93386991 11.1729712,4.19839026 C11.4264859,4.4629106 11.4264859,4.89178282 11.1729712,5.15630317 L11.1729712,5.15630317 L3.8457575,12.8016078 C3.5922428,13.0661281 3.18121426,13.0661281 2.92769957,12.8016078 L2.92769957,12.8016078 L0.190136024,9.94520042 C-0.0633786745,9.68068007 -0.0633786745,9.25180786 0.190136024,8.98728751 C0.443650722,8.72276717 0.854679259,8.72276717 1.10819396,8.98728751 L1.10819396,8.98728751 L3.38672853,11.3647384 Z M14.891806,4.19839026 C15.1453207,3.93386991 15.5563493,3.93386991 15.809864,4.19839026 C16.0633787,4.4629106 16.0633787,4.89178282 15.809864,5.15630317 L15.809864,5.15630317 L8.48265029,12.8016078 C8.24093256,13.053819 7.85318019,13.0672267 7.59598973,12.8322665 L7.59598973,12.8322665 L6.40979383,11.7485999 C6.14005126,11.5021727 6.11283888,11.0742414 6.34901329,10.7927887 C6.58518769,10.511336 6.99531444,10.4829422 7.26505701,10.7293695 L7.26505701,10.7293695 L7.99417355,11.3954646 Z" id="Combined-Shape"></path>
            </g>
        </g>
    </g>
</svg>