<?xml version="1.0" encoding="UTF-8"?>
<svg width="22px" height="22px" viewBox="0 0 22 22" version="1.1" xmlns="http://www.w3.org/2000/svg" xmlns:xlink="http://www.w3.org/1999/xlink">
    <!-- Generator: sketchtool 58 (101010) - https://sketch.com -->
    <title>84FE0A9C-94B0-4DC1-9E18-D26777475A59</title>
    <desc>Created with sketchtool.</desc>
    <g id="Total-Flow" stroke="none" stroke-width="1" fill="none" fill-rule="evenodd">
        <g id="5.0-Sell-power" transform="translate(-195.000000, -230.000000)">
            <g id="blue-arrow-icon/24px/arrow-with-circle" transform="translate(194.000000, 229.000000)">
                <g id="arrow-2" transform="translate(1.000000, 1.000000)">
                    <g id="arrow">
                        <circle id="Oval" fill="#0048A8" opacity="0.5" cx="11" cy="11" r="11"></circle>
                        <g id="Group-2" transform="translate(4.000000, 5.000000)" fill="#FFFFFF">
                            <g id="icon/10px/back-arrow">
                                <path d="M5.50576026,0.251562425 C5.84718087,-0.0834547122 6.40120003,-0.0839121684 6.74319669,0.250540668 C7.08519335,0.584993505 7.08566034,1.12770615 6.74423973,1.46272329 L6.74423973,1.46272329 L2.994,5.142 L13.375,5.14285698 C13.720178,5.14285698 14,5.42267901 14,5.76785698 L14,6.23214273 C14,6.5773207 13.720178,6.85714273 13.375,6.85714273 L2.966,6.857 L6.69300613,10.5393542 C7.00490133,10.8474997 7.02890854,11.3292038 6.76642169,11.664078 L6.68773226,11.7515262 C6.34457026,12.0848317 5.79055594,12.0825187 5.45030663,11.74636 L5.45030663,11.74636 L0.253650255,6.61218009 C-0.0853715134,6.27723418 -0.0844285649,5.73690523 0.255760272,5.40309676 L0.255760272,5.40309676 Z" id="Combined-Shape" transform="translate(7.000000, 6.000000) scale(-1, 1) translate(-7.000000, -6.000000) "></path>
                            </g>
                        </g>
                    </g>
                </g>
            </g>
        </g>
    </g>
</svg>