<?xml version="1.0" encoding="UTF-8"?>
<svg width="32px" height="32px" viewBox="0 0 32 32" version="1.1" xmlns="http://www.w3.org/2000/svg" xmlns:xlink="http://www.w3.org/1999/xlink">
    <!-- Generator: sketchtool 61 (101010) - https://sketch.com -->
    <title>D01175EC-F4BC-4EBD-B58F-B82B5FCB6D18</title>
    <desc>Created with sketchtool.</desc>
    <defs>
        <circle id="path-1" cx="15.0759563" cy="15.0709409" r="14.9184149"></circle>
    </defs>
    <g id="Total-Flow" stroke="none" stroke-width="1" fill="none" fill-rule="evenodd">
        <g id="7.0-Statements" transform="translate(-23.000000, -270.000000)">
            <g id="Transaction-1" transform="translate(24.000000, 271.000000)">
                <g id="Group-28">
                    <mask id="mask-2" fill="white">
                        <use xlink:href="#path-1"></use>
                    </mask>
                    <circle stroke="#DADADA" stroke-width="0.596736597" cx="15.0759563" cy="15.0709409" r="15.2167832"></circle>
                    <path d="M27.7388567,23.4756736 C24.8009075,27.5343911 20.0293526,30.2017569 14.6753316,30.2105138 C9.32131061,30.2192272 4.58306633,27.5931981 1.63163062,23.518268 C3.92987089,21.0356857 7.04224642,19.713728 9.6437621,19.0381331 C9.41152105,20.9234576 10.3766078,23.4523581 10.4022175,23.3748528 C11.3743952,21.1010034 14.6635988,20.8890676 14.6635988,20.8890676 C14.6635988,20.8890676 17.9522305,21.0644503 18.9431557,23.3609181 C18.9685748,23.4125189 19.9410956,20.9062784 19.7144206,19.0217026 C22.3394492,19.6887703 25.4479362,21.0005786 27.7388567,23.4756736 Z" id="Path" fill="#C7C9CB" fill-rule="nonzero" mask="url(#mask-2)" transform="translate(14.685244, 24.616108) rotate(2.000000) translate(-14.685244, -24.616108) "></path>
                    <path d="M18.6563759,17.1848447 L18.6563759,17.1848447 C18.6563759,17.4622267 18.4750888,18.9344847 15.1665999,20.1293608 L14.9853128,20.1293608 C11.6768238,18.9344847 11.4955368,17.4622267 11.4955368,17.1848447 L11.4955368,17.1848447 C11.5181976,16.6300808 11.6541629,16.0753169 11.9034327,15.5632272 C12.809868,16.5233954 13.8975904,17.1635076 15.0759563,17.1635076 C16.2316614,17.1635076 17.3420447,16.5447325 18.24848,15.5632272 C18.4977497,16.0753169 18.6563759,16.6300808 18.6563759,17.1848447 Z" id="Path" fill="#FED198" fill-rule="nonzero" mask="url(#mask-2)"></path>
                    <path d="M18.6892669,17.2861715 C18.6892669,17.2861715 18.8537219,18.9892466 14.9772834,20.2878414 C14.9772834,20.2878414 18.0079535,20.4368605 18.9242026,22.3315316 C18.9476961,22.4166854 20.7097137,18.2867282 18.6892669,17.2861715 Z" id="Path" fill="#FFFFFF" fill-rule="nonzero" mask="url(#mask-2)"></path>
                    <path d="M11.2652998,17.2861715 C9.26834662,18.2867282 11.0068706,22.3953969 11.0538577,22.3315316 C11.9466132,20.458149 15.0007769,20.2878414 15.0007769,20.2878414 C11.1008448,18.9892466 11.2652998,17.2861715 11.2652998,17.2861715 Z" id="Path" fill="#FFFFFF" fill-rule="nonzero" mask="url(#mask-2)"></path>
                    <path d="M18.5631358,16.0489861 C17.5603008,17.1419436 16.3664496,17.846294 15.0293363,17.846294 C13.6922229,17.846294 12.4983718,17.1419436 11.4955368,16.0489861 C11.5432908,15.8789704 11.6149219,15.7089548 11.6865529,15.5632272 C12.6416339,16.6561847 13.787731,17.384823 15.0293363,17.384823 C16.2709415,17.384823 17.3899411,16.6804726 18.3450221,15.5632272 C18.4166532,15.7089548 18.5153818,15.8789704 18.5631358,16.0489861 Z" id="Path" fill="#F0B97D" fill-rule="nonzero" mask="url(#mask-2)"></path>
                    <path d="M21.3774267,12.6331419 C20.8843311,13.4180862 20.1329473,13.8890529 19.5694095,13.799345 C18.4423338,15.7953464 16.7986818,17.2755273 14.9671839,17.2755273 C13.1356859,17.2755273 11.4920339,15.7729194 10.3649582,13.799345 C9.80142038,13.8666259 9.0500366,13.4180862 8.556941,12.6331419 C7.96992242,11.7136356 7.94644168,10.7044213 8.50997951,10.3680166 C8.65086397,10.3007356 8.79174843,10.2558817 8.95611363,10.2783087 C9.33180552,11.197815 9.84838186,11.7584895 9.84838186,11.7584895 C9.30832477,8.91026271 11.5155146,8.59628495 11.1398227,5.86019306 C11.1398227,5.86019306 12.5251866,8.7981278 16.4934322,6.73484539 L16.1881825,7.29551995 C21.7296379,6.10688987 19.8746592,12.3415911 19.8276977,12.49858 C20.4616777,11.7360625 20.8608504,10.9735451 21.0956578,10.2783087 C21.1895808,10.2783087 21.3069845,10.3231626 21.3774267,10.3680166 C21.987926,10.6819944 21.9644453,11.7136356 21.3774267,12.6331419 Z" id="Path" fill="#FED198" fill-rule="nonzero" mask="url(#mask-2)"></path>
                    <path d="M17.9557663,3.21469986 C18.4023585,3.17033213 19.1310091,3.54745782 19.1310091,3.54745782 C17.1330963,1.39562303 13.8659212,2.77102258 13.8659212,2.77102258 C14.9706495,1.88366803 15.9578534,1.97240349 15.9578534,1.97240349 C11.280387,1.30688757 10.4812219,3.94676737 10.4812219,3.94676737 C10.2696781,3.63619328 10.2696781,3.192516 10.293183,2.97067736 C9.96411501,3.50309009 10.3166879,4.56791556 10.3166879,4.56791556 C9.98761986,3.79148032 8.83588189,3.92458351 8.83588189,3.92458351 C9.82308587,4.07987055 9.98761986,4.65665101 9.98761986,4.65665101 C7.51960992,5.5218217 7.94269734,7.93986286 7.94269734,7.93986286 L8.53031875,7.27434695 C7.8016682,9.91422675 9.65855187,11.9551422 9.65855187,11.9551422 C9.11794017,9.13779151 11.3273967,8.82721742 10.951319,6.12078603 C10.951319,6.12078603 12.3381055,9.02687219 16.3104263,6.98595672 L16.0048632,7.54055331 C21.6225239,6.34262467 19.6481159,12.7093936 19.6481159,12.7093936 C21.6460287,10.3135363 21.3404656,7.85112741 21.3404656,7.85112741 L21.5755142,8.73848196 C22.2101453,4.74538647 17.9557663,3.21469986 17.9557663,3.21469986 Z" id="Path" fill="#666666" fill-rule="nonzero" mask="url(#mask-2)"></path>
                </g>
            </g>
        </g>
    </g>
</svg>