<?xml version="1.0" encoding="UTF-8"?>
<svg width="12px" height="12px" viewBox="0 0 12 12" version="1.1" xmlns="http://www.w3.org/2000/svg" xmlns:xlink="http://www.w3.org/1999/xlink">
    <!-- Generator: sketchtool 58 (101010) - https://sketch.com -->
    <title>7D1AB99C-F53D-4136-BF09-3E0FF5F18FD4</title>
    <desc>Created with sketchtool.</desc>
    <g id="Total-Flow" stroke="none" stroke-width="1" fill="none" fill-rule="evenodd" opacity="0.5">
        <g id="3.0-Dashboard_Sell-4" transform="translate(-172.000000, -661.000000)" fill="#0048A8">
            <g id="Latest-Transactions" transform="translate(8.000000, 562.000000)">
                <g id="Group-5" transform="translate(0.000000, 35.000000)">
                    <g id="Group-13" transform="translate(164.000000, 64.000000)">
                        <g id="calendar--icon/12px/calendar">
                            <path d="M10.5,1.5 L9,1.5 L9,0.75 C9,0.33535109 8.66404358,0 8.25,0 C7.83595642,0 7.5,0.33535109 7.5,0.75 L7.5,1.5 L4.5,1.5 L4.5,0.75 C4.5,0.33535109 4.16404358,0 3.75,0 C3.33595642,0 3,0.33535109 3,0.75 L3,1.5 L1.5,1.5 C0.671912833,1.5 0,2.17191283 0,3 L0,10.5 C0,11.3280872 0.671912833,12 1.5,12 L10.5,12 C11.3280872,12 12,11.3280872 12,10.5 L12,3 C12,2.17130751 11.3280872,1.5 10.5,1.5 Z M10.5,10.5 L1.5,10.5 L1.5,4.12469734 L10.5,4.12469734 L10.5,10.5 Z" id="Shape"></path>
                        </g>
                    </g>
                </g>
            </g>
        </g>
    </g>
</svg>