<?xml version="1.0" encoding="UTF-8"?>
<svg width="40px" height="40px" viewBox="0 0 40 40" version="1.1" xmlns="http://www.w3.org/2000/svg" xmlns:xlink="http://www.w3.org/1999/xlink">
    <!-- Generator: sketchtool 58 (101010) - https://sketch.com -->
    <title>82F77737-3955-4431-9A0E-D450AB4AABD2</title>
    <desc>Created with sketchtool.</desc>
    <g id="Total-Flow" stroke="none" stroke-width="1" fill="none" fill-rule="evenodd">
        <g id="Pu.9-Cancel-Order_Case-2" transform="translate(-187.000000, -243.000000)" fill="#D0021B" fill-rule="nonzero">
            <g id="Popup-Copy" transform="translate(32.000000, 195.000000)">
                <g id="icon/40px/success-copy-icon/40px/cancel" transform="translate(155.000000, 48.000000)">
                    <g id="calendar">
                        <path d="M29.1665649,18.3334351 C35.1400757,18.3334351 40,23.1933594 40,29.1665649 C40,35.1400757 35.1400757,40 29.1665649,40 C23.1933594,40 18.3334351,35.1400757 18.3334351,29.1665649 C18.3334351,23.1933594 23.1933594,18.3334351 29.1665649,18.3334351 Z M29.1665649,20.8334351 C24.5715332,20.8334351 20.8334351,24.5715332 20.8334351,29.1665649 C20.8334351,33.7615967 24.5715332,37.5 29.1665649,37.5 C33.7615967,37.5 37.5,33.7615967 37.5,29.1665649 C37.5,24.5715332 33.7615967,20.8334351 29.1665649,20.8334351 Z M26.8099976,25.039978 L29.167,27.397 L31.5249634,25.039978 C32.0132446,24.5516968 32.8048706,24.5516968 33.293457,25.039978 C33.7817383,25.5282593 33.7817383,26.3198852 33.293457,26.8084717 L30.936,29.166 L33.2916259,31.5216064 C33.7799072,32.0098877 33.7799072,32.8018188 33.2916259,33.2901001 C33.0465698,33.5348511 32.7282715,33.6566162 32.4066163,33.6566162 C32.086792,33.6566162 31.7666626,33.5348511 31.5234375,33.2901001 L29.167,30.934 L26.8115234,33.2901001 C26.5649414,33.5348511 26.246643,33.6566162 25.9268188,33.6566162 C25.6066895,33.6566162 25.2865601,33.5348511 25.043335,33.2901001 C24.5550538,32.8018188 24.5550538,32.0098877 25.043335,31.5216064 L27.398,29.165 L25.0418091,26.8084717 C24.5532227,26.3198852 24.5532227,25.5282593 25.0418091,25.039978 C25.5300903,24.5516968 26.3217163,24.5516968 26.8099976,25.039978 Z M25.4165649,-4.4408921e-15 C26.1065673,-4.4408921e-15 26.6665649,0.559997578 26.6665649,1.25 L26.666,3.333 L28.75,3.33343508 C31.2783813,3.33343508 33.3334351,5.38818359 33.3334351,7.91656492 L33.3334351,14.5834351 C33.3334351,15.2734375 32.7734375,15.8334351 32.0834351,15.8334351 C31.3934327,15.8334351 30.8334351,15.2749634 30.8334351,14.5834351 L30.833,12.5 L2.5,12.5 L2.5,27.0834351 C2.5,28.2318116 3.43505859,29.1665649 4.58343508,29.1665649 L14.1665649,29.1665649 C14.8565673,29.1665649 15.4165649,29.7265625 15.4165649,30.4165649 C15.4165649,31.1065673 14.8565673,31.6665649 14.1665649,31.6665649 L4.58343508,31.6665649 C2.05505375,31.6665649 9.59232693e-14,29.6118164 9.59232693e-14,27.0834351 L9.59232693e-14,7.91656492 C9.59232693e-14,5.38818359 2.05505375,3.33343508 4.58343508,3.33343508 L6.666,3.333 L6.66656492,1.25 C6.66656492,0.559997578 7.2265625,-4.4408921e-15 7.91656492,-4.4408921e-15 C8.60656734,-4.4408921e-15 9.16656492,0.559997578 9.16656492,1.25 L9.166,3.333 L24.166,3.333 L24.1665649,1.25 C24.1665649,0.559997578 24.7265625,-4.4408921e-15 25.4165649,-4.4408921e-15 Z M6.666,5.833 L4.58343508,5.83343508 C3.43505859,5.83343508 2.5,6.76818844 2.5,7.91656492 L2.5,10 L30.833,10 L30.8334351,7.91656492 C30.8334351,6.76818844 29.8983765,5.83343508 28.75,5.83343508 L26.666,5.833 L26.6665649,7.91656492 C26.6665649,8.60656734 26.1065673,9.16656492 25.4165649,9.16656492 C24.7265625,9.16656492 24.1665649,8.60656734 24.1665649,7.91656492 L24.166,5.833 L9.166,5.833 L9.16656492,7.91656492 C9.16656492,8.60656734 8.60656734,9.16656492 7.91656492,9.16656492 C7.2265625,9.16656492 6.66656492,8.60656734 6.66656492,7.91656492 L6.666,5.833 Z" id="Combined-Shape"></path>
                    </g>
                </g>
            </g>
        </g>
    </g>
</svg>