<?xml version="1.0" encoding="UTF-8"?>
<svg width="15px" height="18px" viewBox="0 0 15 18" version="1.1" xmlns="http://www.w3.org/2000/svg" xmlns:xlink="http://www.w3.org/1999/xlink">
    <title>clap</title>
    <g id="DR_Customers" stroke="none" stroke-width="1" fill="none" fill-rule="evenodd">
        <g id="6.1-Event-participation" transform="translate(-21.000000, -343.000000)" fill-rule="nonzero">
            <g id="Group-2" transform="translate(8.000000, 193.000000)">
                <g id="Group-4" transform="translate(1.000000, 139.000000)">
                    <g id="Group-7" transform="translate(12.000000, 11.000000)">
                        <g id="clap">
                            <path d="M11.1119569,6.91446546 C10.7553407,6.72033701 10.3089113,6.85184334 10.1146181,7.20862439 L9.56832292,8.20266737 L6.51533213,6.64370738 L7.74602062,4.38370977 C7.97261365,3.96776738 7.81902479,3.44668585 7.4030824,3.22009282 C6.98697522,2.99349979 6.46589365,3.14725344 6.23946545,3.56319587 L5.24311531,5.3927491 L5.18444832,5.50036018 L3.83626105,7.97541516 L2.63638922,6.93209848 C2.09981695,6.39008799 1.22525027,6.38563851 0.683074951,6.92221079 C0.551898191,7.05206919 0.550909443,7.26399548 0.680767843,7.39500741 L1.35411988,8.07528086 C2.31372074,9.04476941 2.50850836,9.41786512 2.32245486,10.6187257 L2.03966677,12.2993044 L6.77471936,14.8780153 L7.3664979,13.7915224 C7.89136977,13.7521364 8.38608411,13.4568239 8.65651257,12.960132 L11.1716127,8.34224868 L11.4061159,7.91163951 C11.6002443,7.55518812 11.4685732,7.10875864 11.1119569,6.91446546" id="Path" fill="#FFD578"></path>
                            <path d="M11.1119569,6.91446546 L11.2497255,6.66150524 C11.0951479,6.57729502 10.9262331,6.53659066 10.7609438,6.53675545 C10.3990541,6.53642588 10.0473817,6.73022471 9.86165784,7.07085583 L9.86215224,7.06986704 L9.45049454,7.81918957 L6.90968637,6.52159436 L7.99898084,4.52131354 C8.09340832,4.34827885 8.13872694,4.15925911 8.13856211,3.9741944 C8.13905651,3.56879888 7.9220216,3.17510382 7.54085095,2.9671326 L7.54068617,2.96696782 C7.36765148,2.87270512 7.17879647,2.82722172 6.99356702,2.82738606 C6.58817146,2.82705694 6.19431162,3.04409184 5.98650523,3.42542728 L4.99015509,5.25498055 L4.99015509,5.25481576 L4.9314881,5.36242684 L3.75485234,7.52288827 L2.82524418,6.71473397 L2.63638922,6.93209848 L2.8410645,6.72940075 C2.51526494,6.40030529 2.08383181,6.23419201 1.65487061,6.23468636 C1.23134767,6.23419201 0.805188021,6.3960206 0.480541999,6.71753551 C0.357934576,6.83849496 0.295642073,7.00048839 0.295970383,7.15984509 C0.2958069,7.31705942 0.356451432,7.47707531 0.476092526,7.59770519 L1.14944461,8.27797864 C1.51973881,8.65123913 1.76215212,8.92611707 1.90206304,9.16737684 C2.04131474,9.40979018 2.09586187,9.61561903 2.09783937,9.93153089 C2.09800419,10.1088503 2.07756962,10.3191286 2.03785406,10.5747255 L2.32245486,10.6187257 L2.03851319,10.5709352 L1.75572514,12.2515139 C1.73529053,12.3724733 1.79428714,12.4935976 1.90189821,12.5522646 L6.63711559,15.1309756 C6.77669686,15.2071108 6.95170909,15.15553 7.02767954,15.0157839 L7.61945812,13.929291 L7.3664979,13.7915224 L7.38808605,14.07876 C8.00573742,14.0327822 8.5905946,13.6835817 8.90947279,13.0977358 L11.4244081,8.4800172 L11.6589113,8.04957289 C11.7431215,7.89499523 11.7838258,7.72608045 11.783662,7.56079113 C11.7841554,7.19890147 11.5901918,6.8470643 11.2497255,6.66150524 L10.9741884,7.16742563 C11.1236574,7.24850474 11.2073732,7.40159921 11.2077028,7.56079113 C11.2077028,7.63313611 11.1905641,7.70531627 11.1531557,7.77403578 L10.9186525,8.20448008 L8.40355235,12.8223635 C8.18157362,13.2300661 7.77700207,13.4714907 7.34490976,13.5044497 C7.24702159,13.5118654 7.16050427,13.5677309 7.11370251,13.6539187 L6.6595277,14.4874514 L2.35772099,12.144562 L2.60656131,10.6665163 L2.6070557,10.6628908 C2.6492432,10.3901552 2.67379764,10.1523561 2.67396242,9.93153089 C2.67594,9.54096694 2.58892828,9.19687514 2.3994141,8.87667859 C2.21072392,8.55565808 1.93716435,8.25573131 1.5587952,7.87274791 L0.885278334,7.19247446 L0.871929955,7.15984509 L0.885607944,7.12705089 L0.885607944,7.1268861 C1.09951174,6.91528942 1.37587281,6.8109742 1.65470582,6.81064463 C1.93732913,6.8109742 2.21715093,6.91825571 2.43154912,7.13463148 L2.44736943,7.149463 L3.64724127,8.19277967 C3.71332402,8.25012831 3.8011597,8.27435313 3.88734746,8.25886243 C3.97337043,8.24337173 4.04736334,8.18997813 4.08922127,8.11301893 L5.43724371,5.63796395 L5.49591075,5.53051766 L5.49591075,5.53035288 L6.49226084,3.70079961 C6.59558727,3.51062628 6.79086924,3.40383917 6.99356702,3.40334478 C7.08568735,3.40350956 7.17797251,3.42542728 7.26531384,3.47305304 L7.26531384,3.47288821 C7.45548716,3.57637947 7.56227427,3.77166144 7.56276867,3.9741944 C7.56260388,4.06631477 7.54068617,4.15859993 7.4930604,4.24594121 L6.26237191,6.50593883 C6.22512828,6.57449352 6.21705334,6.65425426 6.24012458,6.72874157 C6.26319592,6.80322887 6.31477672,6.86453258 6.38432015,6.90012829 L9.43731094,8.45908827 C9.57590346,8.52978528 9.74580704,8.4775453 9.8207887,8.34125989 L10.3669191,7.34721691 L10.3674135,7.34622812 C10.4486574,7.19675915 10.6017519,7.11304333 10.7607789,7.11271372 C10.8331239,7.11271372 10.9053041,7.12985239 10.9741884,7.16726085 L11.1119569,6.91446546 Z" id="Path" fill="#54596E"></path>
                            <path d="M7.55304576,8.32511001 L9.95592058,3.9127259 C10.1826784,3.49678351 10.0290895,2.97570194 9.61298231,2.74927373 C9.19687514,2.5226807 8.67595839,2.67626957 8.44936536,3.09237674 L6.04649058,7.50459607" id="Path" fill="#FFD578"></path>
                            <path d="M7.80584119,8.46287852 L10.2088808,4.05049446 L10.208716,4.05049446 C10.3033082,3.87729498 10.3486272,3.68844002 10.3486272,3.50321048 C10.3489565,3.09781501 10.1319215,2.70395512 9.75058608,2.49614873 C9.57738661,2.40188603 9.38853164,2.35640263 9.20346693,2.35656658 C8.79807142,2.35607302 8.40421157,2.57327275 8.19640514,2.95460819 L5.79336558,7.36682751 C5.71739513,7.50640882 5.76897593,7.68142101 5.90855724,7.75755625 C6.04830333,7.83352674 6.22315074,7.78194594 6.29928597,7.64219984 L8.70232558,3.22998052 C8.80581679,3.0398072 9.00093398,2.93302008 9.20346693,2.93252569 C9.29558731,2.93269047 9.38787246,2.95460819 9.47537854,3.00206913 C9.66538712,3.10556034 9.77233901,3.30067753 9.77266862,3.50321048 C9.77266862,3.59516607 9.75075087,3.68761601 9.70312514,3.77479252 L9.70296036,3.77495734 L7.30008554,8.18734141 C7.2239503,8.32692272 7.2755311,8.50193495 7.4152772,8.57807019 C7.55485851,8.65404064 7.7298707,8.60262462 7.80584119,8.46287852 Z" id="Path" fill="#54596E"></path>
                            <polygon id="Path" fill="#FFFFFF" points="7.08156749 14.9869448 5.67487801 17.5697757 0.293994145 14.6393923 1.70068362 12.0563967"></polygon>
                            <path d="M7.08156749,14.9869448 L6.82860727,14.8491763 L5.55968635,17.1790469 L0.684722921,14.5240359 L1.81587528,12.4471254 L6.94379893,15.239905 L7.08156749,14.9869448 L6.82860727,14.8491763 L7.08156749,14.9869448 L7.21933605,14.7339846 L1.83845218,11.8036012 C1.69887086,11.727466 1.52385868,11.7790468 1.4477234,11.9187929 L0.04119871,14.5016238 C0.00477904226,14.5682009 -0.00362548834,14.6479617 0.0177978518,14.720801 C0.0392212131,14.7934756 0.0898132232,14.8559328 0.156390373,14.8921877 L5.53710946,17.8227359 C5.60385139,17.8589908 5.68361213,17.8675601 5.75628669,17.8459719 C5.82912606,17.8245486 5.89158335,17.7741214 5.92783823,17.7075442 L7.33452771,15.1247134 C7.37078259,15.0581362 7.37935193,14.9782107 7.35792857,14.9055361 C7.33634046,14.8326968 7.28591319,14.7702395 7.21933605,14.7339846 L7.08156749,14.9869448 Z" id="Path" fill="#54596E"></path>
                            <path d="M2.75850225,13.9126467 C2.68187258,13.6530947 2.40930179,13.5046145 2.14974978,13.5810793 C1.89003298,13.6577089 1.74155276,13.9301149 1.81801761,14.1898317 C1.89464723,14.4495485 2.16721806,14.5980288 2.42677008,14.5213992 C2.68648688,14.4449343 2.83496709,14.1723635 2.75850225,13.9126467 Z" id="Path" fill="#54596E"></path>
                            <path d="M13.8900698,8.12455455 C13.5777834,7.86500258 13.1143801,7.90735486 12.8546633,8.21964126 L12.1259401,9.08909924 L9.43302625,6.96736462 L11.0788332,4.98900152 C11.3817262,4.62480476 11.332123,4.08411262 10.9679262,3.78105474 C10.6037294,3.47816165 10.0628725,3.52776496 9.75997938,3.89196172 L8.42761243,5.49343881 L8.34933483,5.58753668 L6.54697275,7.75442517 L5.5718812,6.49819346 C5.15066537,5.86224983 4.29356698,5.688556 3.65762336,6.10977183 C3.5038697,6.21161507 3.4616822,6.41925668 3.56369023,6.57317516 L4.09235235,7.37111216 C4.84579474,8.50819714 4.96444708,8.91194472 4.54899909,10.0539735 L3.94584967,11.64787 L8.09093639,15.096039 L8.88211681,14.1448427 C9.40468153,14.2079592 9.94718642,14.0141604 10.3089113,13.5794313 L13.6715517,9.53701186 L13.9851565,9.16029064 C14.2448733,8.84783947 14.2021914,8.38427135 13.8900698,8.12455455" id="Path" fill="#FFD578"></path>
                            <path d="M13.8900698,8.12455455 L14.0741457,7.90307018 C13.8838076,7.74453748 13.6502932,7.66625988 13.4202395,7.66658945 C13.1278933,7.66625988 12.8350527,7.7926576 12.6331789,8.03540051 L12.6338381,8.03457655 L12.0845766,8.68996595 L9.8436952,6.92435311 L11.3001528,5.17340705 C11.4778017,4.95999761 11.5653078,4.69863288 11.565143,4.44105841 C11.5654726,4.1134461 11.4239137,3.785669 11.1521669,3.55973515 L11.1521669,3.55957037 C10.9389223,3.38208624 10.6773927,3.29441534 10.4198183,3.29474399 C10.092206,3.29441534 9.76442886,3.43597415 9.53833022,3.7078858 L9.538495,3.70772101 L8.20612805,5.30919807 L8.12768567,5.40346076 L8.12785045,5.40346076 L6.55455334,7.29464731 L5.79946298,6.3215333 L5.5718812,6.49819346 L5.81198739,6.33900154 C5.49113166,5.85466929 4.95933847,5.59132698 4.41930548,5.59182137 C4.10289922,5.59165659 3.78138431,5.68212899 3.49843144,5.86966559 C3.31814581,5.98930673 3.21959843,6.18821421 3.22009097,6.38876963 C3.21992804,6.50659801 3.25387577,6.62722789 3.32358403,6.73220225 L3.85224615,7.53013929 C4.08460697,7.88065807 4.25006112,8.15372329 4.35239876,8.38377696 C4.45473639,8.61514908 4.4969239,8.79741224 4.49774786,9.00175795 C4.49824225,9.24664323 4.43018196,9.5394838 4.2784058,9.95542618 L4.54899909,10.0539735 L4.27955938,9.9519655 L3.67640996,11.5460268 C3.6329041,11.6607241 3.66734627,11.790912 3.76144414,11.8693544 L7.90669569,15.3175234 C7.96503307,15.3659731 8.04166274,15.3897036 8.11730358,15.3827822 C8.19277967,15.3760256 8.26380625,15.3386172 8.31225598,15.2802798 L9.1034364,14.3290835 L8.88195203,14.1448427 L8.8475099,14.4307619 C8.92348035,14.4399904 8.99961562,14.4444399 9.07575086,14.4444399 C9.61660782,14.4449343 10.1566408,14.2129031 10.5302309,13.7635073 L13.8930361,9.72108778 L14.2064761,9.3443666 C14.3650087,9.15386367 14.4434511,8.92034923 14.4431226,8.69029556 C14.4434511,8.39778456 14.3168886,8.10494399 14.0741457,7.90307018 L13.8900698,8.12455455 L13.7058291,8.34587415 C13.8127809,8.43502819 13.8668337,8.56093151 13.8671633,8.69029556 C13.8669985,8.79180923 13.8337099,8.89151015 13.7636721,8.97588515 L13.7638369,8.97588515 L13.4502321,9.35260633 L10.0875917,13.3950258 C9.82688614,13.7081362 9.4546144,13.8679873 9.07591564,13.8683169 C9.02268691,13.8683169 8.96962293,13.8651858 8.91672377,13.8587587 C8.81916517,13.8470583 8.72358411,13.8849611 8.66079726,13.9604372 L8.05385754,14.6901492 L4.28796393,11.5575624 L4.8184388,10.155652 L4.81975716,10.1521913 C4.98010261,9.71037612 5.07321173,9.35359512 5.07387091,9.00142838 C5.07453009,8.70924695 5.00531623,8.43140272 4.87858894,8.1489442 C4.75186165,7.86533215 4.57058724,7.57150279 4.33245854,7.21175546 L3.80379642,6.41381845 L3.79621588,6.38860484 L3.81681523,6.34971324 C4.00352791,6.22611703 4.21166387,6.16777964 4.41947026,6.16761482 C4.77476816,6.16794443 5.12133185,6.33900154 5.33193979,6.65705576 L5.34462899,6.67452405 L6.31955576,7.93075572 C6.3731141,7.99980481 6.4546876,8.04050916 6.54219371,8.04215709 C6.629535,8.04364024 6.71259164,8.00557264 6.76845713,7.93833631 L8.57081921,5.77161265 L8.57098399,5.77144786 L8.64926159,5.67718512 L8.64909681,5.67734995 L9.98146376,4.07587285 C10.0946779,3.93991705 10.2553529,3.87086797 10.4199831,3.8705384 C10.5491823,3.87070318 10.6767336,3.91322025 10.7840151,4.00220955 L10.7838503,4.00220955 C10.9198061,4.11542363 10.9888551,4.27626348 10.9891847,4.44072884 C10.9890199,4.56992806 10.9465028,4.69747931 10.8575136,4.80476081 L9.21170666,6.78295909 C9.16193861,6.84294444 9.13870254,6.91973889 9.14677748,6.99735727 C9.15485242,7.07497569 9.19357924,7.14517835 9.25504773,7.19346325 L11.9477968,9.31519791 C12.0699098,9.41143815 12.2467348,9.3931459 12.3467653,9.27383438 L13.0754885,8.40437636 L13.0761477,8.40355235 C13.1651369,8.29676524 13.2908755,8.2427125 13.4204042,8.24238294 C13.5219179,8.24254772 13.6216188,8.27567149 13.7059938,8.34587415 L13.7059938,8.34570936 L13.8900698,8.12455455 Z" id="Path" fill="#54596E"></path>
                            <path d="M10.1251649,8.81817642 L13.3381716,4.95571296 C13.6412294,4.5915162 13.5914614,4.05065924 13.2272646,3.74776619 C12.8630678,3.44470831 12.3222109,3.49447636 12.019153,3.85867316 L8.80614636,7.72113658" id="Path" fill="#FFD578"></path>
                            <path d="M10.3464845,9.00241713 L13.5594912,5.13995371 C13.7371401,4.92670906 13.824811,4.6651795 13.8244823,4.40760503 C13.824811,4.07999276 13.6834169,3.75221562 13.4115053,3.52628181 L13.4115053,3.5264466 C13.1984255,3.34879765 12.936896,3.26112675 12.6791567,3.261291 C12.3517092,3.26096196 12.0239321,3.40252081 11.7978334,3.67426763 L11.7978334,3.67443242 L8.58482681,7.53689587 C8.48314831,7.65917369 8.49979259,7.84077772 8.62207044,7.94245617 C8.7443483,8.04413463 8.9257875,8.02749035 9.02763074,7.9052125 L12.2406374,4.0425843 L12.2404726,4.04274908 C12.3538515,3.90662846 12.5146913,3.83757941 12.6791567,3.8372498 C12.8083559,3.83757941 12.9359072,3.8799317 13.0431887,3.96908574 C13.1791445,4.08229987 13.2481936,4.24297493 13.2485231,4.40760503 C13.2483583,4.53663946 13.2058413,4.66419075 13.116852,4.77147222 L9.90384534,8.63393568 C9.8020021,8.75621353 9.8188112,8.93781752 9.94092423,9.0396608 C10.063202,9.14133926 10.2448061,9.12469494 10.3464845,9.00241713 L10.3464845,9.00241713 Z" id="Path" fill="#54596E"></path>
                            <path d="M11.4990602,9.84270646 L14.1806032,6.61915295 C14.4307619,6.3182374 14.3384768,5.82896128 13.97428,5.5259034 C13.6100832,5.22301035 13.1117434,5.22136238 12.8617495,5.52194832 L10.1800417,8.74550183" id="Path" fill="#FFD578"></path>
                            <path d="M11.7203798,10.0269472 L14.4019228,6.80339366 L14.4020876,6.80339366 C14.5438113,6.63332529 14.609894,6.42156383 14.6094024,6.21491097 C14.6080813,5.87675179 14.4449343,5.54370125 14.1585207,5.30441902 C13.9256655,5.11111459 13.6468325,5.00993048 13.3724489,5.00959154 C13.1023501,5.00844734 12.8263186,5.11375131 12.6402651,5.3378724 L9.95872208,8.56142591 C9.85704363,8.68353894 9.8736879,8.86514296 9.99596571,8.96698621 C10.1182436,9.06866471 10.2998476,9.05202039 10.4015261,8.92974258 L13.0830691,5.70618903 C13.1461855,5.63087776 13.2420962,5.58654793 13.3724489,5.58539436 C13.5024721,5.58506479 13.6570498,5.6361512 13.7900393,5.747223 L13.7900393,5.74705817 C13.9551638,5.88350841 14.0344302,6.06939708 14.0332766,6.21474619 C14.0326174,6.30472419 14.0074038,6.37608043 13.9591188,6.43491221 L11.2775758,9.65846571 C11.1758974,9.78074356 11.1925417,9.96218277 11.3148195,10.064026 C11.4370973,10.1658693 11.6187013,10.149225 11.7203798,10.0269472 L11.7203798,10.0269472 Z" id="Path" fill="#54596E"></path>
                            <polygon id="Path" fill="#FFFFFF" points="8.37059337 15.2623171 6.4897889 17.5233035 1.77945561 13.6048098 3.66026007 11.3438234"></polygon>
                            <path d="M8.37059337,15.2623171 L8.14927381,15.0780764 L6.45254527,17.1175784 L2.18501591,13.5675661 L3.69750371,11.7493837 L8.18651745,15.4836367 L8.37059337,15.2623171 L8.14927381,15.0780764 L8.37059337,15.2623171 L8.55483411,15.0408328 L3.84450078,11.1225038 C3.72222297,11.0206606 3.54061894,11.0374696 3.43894048,11.1597475 L1.55797124,13.4205691 C1.50952151,13.4789065 1.48562625,13.5557009 1.4927124,13.631177 C1.49963381,13.7066531 1.53687749,13.7776796 1.59521487,13.8262942 L6.30571298,17.7446231 C6.42782601,17.8464663 6.60943004,17.8296572 6.71127328,17.7073794 L8.59207774,15.4465578 C8.64052747,15.3882204 8.66442273,15.311426 8.65750136,15.23595 C8.65057995,15.1604739 8.61317149,15.0894472 8.55483411,15.0408328 L8.37059337,15.2623171 Z" id="Path" fill="#54596E"></path>
                            <polygon id="Path" fill="#E6E6E9" points="6.78361827 14.3734133 5.29914559 16.1581423 6.45254527 17.1175784 7.93701795 15.3331789"></polygon>
                            <polygon id="Path" fill="#54596E" points="7.93701795 15.3331789 6.45254527 17.1175784 5.29914559 16.1581423 5.21608894 16.2576785 6.53510752 17.3548831 8.10247206 15.4706179"></polygon>
                            <path d="M4.33888555,13.3694826 C4.31416633,13.0998781 4.07554328,12.9013003 3.80593879,12.9260195 C3.53633429,12.9509035 3.3379212,13.1895266 3.36264042,13.4591311 C3.38735968,13.7287356 3.62598273,13.9271486 3.89558723,13.9024294 C4.16519172,13.8777102 4.36360481,13.6390871 4.33888555,13.3694826 Z" id="Path" fill="#54596E"></path>
                            <g id="Group" transform="translate(3.037500, 0.000000)" fill="#55A6FF">
                                <path d="M2.14282841,2.75405278 L0.390728776,2.17924808 C0.239611841,2.12964482 0.0767944136,2.21204228 0.027191152,2.36315921 C-0.0224121097,2.51427615 0.0599853525,2.67709354 0.211102288,2.7266968 L1.96336671,3.30150149 C2.11448368,3.3511048 2.27713624,3.26870733 2.32673955,3.1175904 C2.37634281,2.96647342 2.29394535,2.80365604 2.14282841,2.75405278" id="Path"></path>
                                <path d="M2.70214236,1.91524663 L1.91409306,0.710101318 C1.82691655,0.57694702 1.64844364,0.539538561 1.51545412,0.626550281 C1.38229983,0.713726828 1.34489137,0.892199741 1.43190309,1.02518921 L2.21995244,2.23033453 C2.30696416,2.36348883 2.48543703,2.40089724 2.61859133,2.31388552 C2.75174563,2.22670902 2.78915408,2.0482361 2.70214236,1.91524663" id="Path"></path>
                                <path d="M3.78121953,2.14101566 L4.15678717,0.34705809 C4.18941659,0.191491681 4.08955084,0.0387268178 3.93381965,0.00609740165 C3.77825324,-0.0263671879 3.62548834,0.0733337308 3.59285892,0.229064966 L3.2174561,2.02302249 C3.18482673,2.17875368 3.28469243,2.33135381 3.44042362,2.36398318 C3.59615486,2.39644781 3.74875494,2.29674685 3.78121953,2.14101566" id="Path"></path>
                            </g>
                        </g>
                    </g>
                </g>
            </g>
        </g>
    </g>
</svg>