<?xml version="1.0" encoding="UTF-8"?>
<svg width="24px" height="24px" viewBox="0 0 24 24" version="1.1" xmlns="http://www.w3.org/2000/svg" xmlns:xlink="http://www.w3.org/1999/xlink">
    <title>dr-events</title>
    <g id="Symbols" stroke="none" stroke-width="1" fill="none" fill-rule="evenodd">
        <g id="Artboard" transform="translate(-27.000000, -30.000000)" fill="#727479">
            <g id="dr-events" transform="translate(27.000000, 30.000000)">
                <path d="M19.6061221,5.32907052e-15 C20.0066219,5.32907052e-15 20.3314071,0.317321766 20.3314071,0.708618188 L20.3314071,0.708618188 L20.3314071,1.50897216 L21.6543495,1.50897216 C22.9476808,1.50897216 24,2.53710938 24,3.80090334 L24,3.80090334 L24,21.708252 C24,22.9718628 22.9478682,24 21.6543495,24 L21.6543495,24 L2.34565048,24 C1.05231924,24 5.86197757e-14,22.9718628 5.86197757e-14,21.708252 L5.86197757e-14,21.708252 L5.86197757e-14,3.80090334 C5.86197757e-14,2.53710938 1.05231924,1.50897216 2.34565048,1.50897216 L2.34565048,1.50897216 L3.66878026,1.50897216 L3.66878026,0.708618188 C3.66878026,0.317321766 3.9935655,5.32907052e-15 4.39406531,5.32907052e-15 C4.79475246,5.32907052e-15 5.1195377,0.317321766 5.1195377,0.708618188 L5.1195377,0.708618188 L5.1195377,1.50897216 L6.5448071,1.50897216 L6.5448071,0.708618188 C6.5448071,0.317321766 6.86959239,5.32907052e-15 7.27009214,5.32907052e-15 C7.6707793,5.32907052e-15 7.99556459,0.317321766 7.99556459,0.708618188 L7.99556459,0.708618188 L7.99556459,1.50897216 L16.0048103,1.50897216 L16.0048103,0.708618188 C16.0048103,0.317321766 16.3295955,5.32907052e-15 16.7300953,5.32907052e-15 C17.1307825,5.32907052e-15 17.4555677,0.317321766 17.4555677,0.708618188 L17.4555677,0.708618188 L17.4555677,1.50897216 L18.8808371,1.50897216 L18.8808371,0.708618188 C18.8808371,0.317321766 19.2056224,5.32907052e-15 19.6061221,5.32907052e-15 Z M22.5492426,7.40148928 L1.45057005,7.40148928 L1.45057005,21.708252 C1.45057005,22.1903686 1.8521943,22.5827637 2.34565048,22.5827637 L2.34565048,22.5827637 L21.6543495,22.5827637 C22.1478057,22.5827637 22.5492426,22.1903686 22.5492426,21.708252 L22.5492426,21.708252 L22.5492426,7.40148928 Z M12.0001874,9.36639403 C15.1751367,9.36639403 17.7580509,11.8899536 17.7580509,14.9919434 C17.7580509,18.0939331 15.1751367,20.6176758 12.0001874,20.6176758 C8.82523815,20.6176758 6.24213651,18.0939331 6.24213651,14.9919434 C6.24213651,11.8899536 8.82505075,9.36639403 12.0001874,9.36639403 Z M12.0001874,10.7836304 C9.62511325,10.7836304 7.69270656,12.6714478 7.69270656,14.9919434 C7.69270656,17.312439 9.62511325,19.2004395 12.0001874,19.2004395 C14.3752616,19.2004395 16.3074809,17.312439 16.3074809,14.9919434 C16.3074809,12.6714478 14.3752616,10.7836304 12.0001874,10.7836304 Z M13.5118538,13.2258911 C13.7950336,12.9492188 14.2543808,12.9492188 14.5375605,13.2258911 C14.8209277,13.5027466 14.8209277,13.951355 14.5375605,14.2282104 L14.5375605,14.2282104 L11.9480868,16.7581787 C11.8120256,16.8911133 11.6276121,16.9656372 11.4353272,16.9656372 C11.2428549,16.9656372 11.0584414,16.8909302 10.9223801,16.7581787 L10.9223801,16.7581787 L9.46262691,15.3319702 C9.17944713,15.0551147 9.17944713,14.6063232 9.46262691,14.3296509 C9.74599408,14.0529785 10.2051538,14.0529785 10.488521,14.3296509 L10.488521,14.3296509 L11.4353272,15.2546997 Z M3.66878026,2.92639163 L2.34565048,2.92639163 C1.8521943,2.92639163 1.45057005,3.31860352 1.45057005,3.80090334 L1.45057005,3.80090334 L1.45057005,5.98406981 L22.54943,5.98406981 L22.54943,3.80090334 C22.54943,3.31860352 22.1478057,2.92639163 21.6543495,2.92639163 L21.6543495,2.92639163 L20.3315946,2.92639163 L20.3315946,3.72674559 C20.3315946,4.11804197 20.0068093,4.43536378 19.6061221,4.43536378 C19.2056224,4.43536378 18.8808371,4.11804197 18.8808371,3.72674559 L18.8808371,3.72674559 L18.8808371,2.92639163 L17.4555677,2.92639163 L17.4555677,3.72674559 C17.4555677,4.11804197 17.1307825,4.43536378 16.7302827,4.43536378 C16.3295955,4.43536378 16.0048103,4.11804197 16.0048103,3.72674559 L16.0048103,3.72674559 L16.0048103,2.92639163 L7.99556459,2.92639163 L7.99556459,3.72674559 C7.99556459,4.11804197 7.6707793,4.43536378 7.27027954,4.43536378 C6.86959239,4.43536378 6.5448071,4.11804197 6.5448071,3.72674559 L6.5448071,3.72674559 L6.5448071,2.92639163 L5.1195377,2.92639163 L5.1195377,3.72674559 C5.1195377,4.11804197 4.79475246,4.43536378 4.39425271,4.43536378 C3.9935655,4.43536378 3.66878026,4.11804197 3.66878026,3.72674559 L3.66878026,3.72674559 L3.66878026,2.92639163 Z" id="Combined-Shape"></path>
            </g>
        </g>
    </g>
</svg>