<?xml version="1.0" encoding="UTF-8"?>
<svg width="40px" height="38px" viewBox="0 0 40 38" version="1.1" xmlns="http://www.w3.org/2000/svg" xmlns:xlink="http://www.w3.org/1999/xlink">
    <!-- Generator: sketchtool 58 (101010) - https://sketch.com -->
    <title>B3C3D8A6-F01E-4FFA-8AF9-26543B884409</title>
    <desc>Created with sketchtool.</desc>
    <g id="Total-Flow" stroke="none" stroke-width="1" fill="none" fill-rule="evenodd">
        <g id="Pu.4-Edit-no-trade-hour" transform="translate(-187.000000, -256.000000)" fill="#0048A8" fill-rule="nonzero">
            <g id="Popup-Copy" transform="translate(32.000000, 207.000000)">
                <g id="icon/40px/success-copy-icon/40px/edit" transform="translate(155.000000, 48.000000)">
                    <path d="M30.4998779,1 C31.3278808,1 31.9998779,1.67199709 31.9998779,2.5 L31.999,5 L36,5 C38.209139,5 40,6.790861 40,9 L40,35 C40,37.209139 38.209139,39 36,39 L4,39 C1.790861,39 0,37.209139 0,35 L0,9 C0,6.790861 1.790861,5 4,5 L7.999,5 L7.99987791,2.5 C7.99987791,1.67199709 8.671875,1 9.49987791,1 C10.3278808,1 10.9998779,1.67199709 10.9998779,2.5 L10.999,5 L28.999,5 L28.9998779,2.5 C28.9998779,1.67199709 29.671875,1 30.4998779,1 Z M37,15.999 L3,15.999 L3,35 C3,35.5522847 3.44771525,36 4,36 L36,36 C36.5522847,36 37,35.5522847 37,35 L37,15.999 Z M36,8 L31.999,8 L31.9998779,10.4998779 C31.9998779,11.3278808 31.3278808,11.9998779 30.4998779,11.9998779 C29.671875,11.9998779 28.9998779,11.3278808 28.9998779,10.4998779 L28.999,8 L10.999,8 L10.9998779,10.4998779 C10.9998779,11.3278808 10.3278808,11.9998779 9.49987791,11.9998779 C8.671875,11.9998779 7.99987791,11.3278808 7.99987791,10.4998779 L7.999,8 L4,8 C3.44771525,8 3,8.44771525 3,9 L3,12.999 L37,12.999 L37,9 C37,8.44771525 36.5522847,8 36,8 Z" id="Combined-Shape"></path>
                </g>
            </g>
        </g>
    </g>
</svg>