<?xml version="1.0" encoding="UTF-8"?>
<svg width="16px" height="16px" viewBox="0 0 16 16" version="1.1" xmlns="http://www.w3.org/2000/svg" xmlns:xlink="http://www.w3.org/1999/xlink">
    <!-- Generator: sketchtool 58 (101010) - https://sketch.com -->
    <title>804E8544-44BF-405B-A6A7-7D7E770DC276</title>
    <desc>Created with sketchtool.</desc>
    <g id="Total-Flow" stroke="none" stroke-width="1" fill="none" fill-rule="evenodd" opacity="0.5">
        <g id="3.0-Dashboard_Sell-4" transform="translate(-186.000000, -342.000000)" fill="#0048A8">
            <g id="Group-12" transform="translate(8.000000, 235.000000)">
                <g id="Group-11" transform="translate(32.000000, 72.000000)">
                    <g id="Group-12-Copy-3" transform="translate(128.000000, 27.000000)">
                        <g id="ev-icon-icon/16px/ev" transform="translate(18.000000, 8.000000)">
                            <path d="M5.31019523,2.62182609 C4.9978308,3.06100857 4.96312364,3.61843248 5.20607375,4.09139823 L5.20607375,4.09139823 L5.20607375,4.10828986 L3.50542299,4.24342293 L2.56832972,7.97647398 L13.4316703,7.97647398 L12.4425163,4.26031456 L10.6898048,4.12518149 C10.9848156,3.68599902 11.0195228,3.14546674 10.7765727,2.67250099 C10.7592191,2.67250099 10.7592191,2.65560936 10.7592191,2.65560936 L10.7592191,2.65560936 L12.824295,2.8245257 C13.2928416,2.85830897 13.6746204,3.16235837 13.8308026,3.58464922 L13.8308026,3.58464922 L14.8546638,7.46972497 L15.3926247,7.46972497 C15.7223427,7.46972497 15.9826464,7.70620784 16,8.01025725 L16,8.01025725 L16,8.8886222 C16,9.19267161 15.7396963,9.44604612 15.4099783,9.44604612 L15.4099783,9.44604612 L15.3232104,9.44604612 L15.670282,12.1149242 C15.6529284,12.8243729 15.1843818,13.4324717 14.5249458,13.6689545 L14.5249458,13.6689545 L14.5249458,15.3750096 C14.5249458,15.7128422 14.2472885,16 13.8828633,16 L13.8828633,16 L13.0498915,16 C12.70282,16 12.4078091,15.7297339 12.4078091,15.3750096 L12.4078091,15.3750096 L12.4078091,13.787196 L3.57483731,13.787196 L3.57483731,15.3750096 C3.57483731,15.7128422 3.29718004,16 2.93275488,16 L2.93275488,16 L2.09978308,16 C1.7527115,16 1.45770065,15.7297339 1.45770065,15.3750096 L1.45770065,15.3750096 L1.45770065,13.6689545 C0.798264642,13.4324717 0.329718004,12.8074812 0.329718004,12.081141 L0.329718004,12.081141 L0.728850325,9.44604612 L0.590021692,9.44604612 C0.260303688,9.44604612 -1.687539e-13,9.20956324 -1.687539e-13,8.8886222 L-1.687539e-13,8.8886222 L-1.687539e-13,8.01025725 C-1.687539e-13,7.68931621 0.260303688,7.4359417 0.590021692,7.4359417 L0.590021692,7.4359417 L1.1626898,7.4359417 L2.13449024,3.56775758 C2.27331887,3.1285751 2.67245119,2.8245257 3.14099783,2.79074243 L3.14099783,2.79074243 Z M3.835141,9.83455369 C3.22776573,9.83455369 2.74186551,10.3075194 2.74186551,10.8987266 C2.74186551,11.4899338 3.22776573,11.9628995 3.835141,11.9628995 C4.42516269,11.9628995 4.91106291,11.4899338 4.92841649,10.8987266 C4.92841649,10.3075194 4.44251627,9.83455369 3.835141,9.83455369 Z M12.1301518,9.83455369 C11.5227766,9.83455369 11.0368764,10.3075194 11.0368764,10.8987266 C11.0368764,11.4899338 11.5227766,11.9628995 12.1301518,11.9628995 C12.7375271,11.9628995 13.2234273,11.4899338 13.2234273,10.8987266 C13.2234273,10.3075194 12.7375271,9.83455369 12.1301518,9.83455369 Z M8.24295011,0.138755936 C8.45119306,-0.131510203 8.88503254,0.0205145 8.86767896,0.358347174 L8.86767896,0.358347174 L8.72885033,2.68939263 L9.44034707,2.68939263 C10.0130152,2.68939263 10.3253796,3.31438308 9.99566161,3.75356555 L9.99566161,3.75356555 L7.73969631,6.69270982 C7.53145336,6.96297596 7.09761388,6.81095126 7.11496746,6.47311858 L7.11496746,6.47311858 L7.2537961,4.14207313 L6.54229935,4.14207313 C5.96963124,4.14207313 5.63991323,3.51708268 5.98698482,3.0779002 L5.98698482,3.0779002 Z" id="Combined-Shape"></path>
                        </g>
                    </g>
                </g>
            </g>
        </g>
    </g>
</svg>