<?xml version="1.0" encoding="UTF-8"?>
<svg width="75px" height="82px" viewBox="0 0 75 82" version="1.1" xmlns="http://www.w3.org/2000/svg" xmlns:xlink="http://www.w3.org/1999/xlink">
    <!-- Generator: sketchtool 58 (101010) - https://sketch.com -->
    <title>6C5EC1B0-9675-4444-934F-ED91455B558A</title>
    <desc>Created with sketchtool.</desc>
    <g id="Total-Flow" stroke="none" stroke-width="1" fill="none" fill-rule="evenodd">
        <g id="Empty-state_Forecast" transform="translate(-169.000000, -273.000000)" fill="#FFFFFF" fill-rule="nonzero" stroke="#FFFFFF" stroke-width="0.5">
            <g id="Group-2" transform="translate(66.000000, 234.000000)">
                <g id="Group" transform="translate(60.000000, 0.000000)">
                    <g id="icon/emptystate/notifications-icon/emptystate/forecast" transform="translate(40.000000, 40.000000)">
                        <path d="M69.1610992,24.508654 C69.0640476,17.5911186 63.4414734,11.993815 56.5438222,11.993815 C54.9868423,11.993815 53.4432684,12.2854897 52.0001448,12.8462271 C50.888394,9.45482011 48.8076375,6.41114254 46.0250505,4.14691093 C42.7387014,1.47281464 38.5972029,0 34.3637509,0 C24.3959454,0 16.2375672,7.94628245 15.8163179,17.8750027 C12.6443915,18.8210927 9.78911021,20.7322745 7.686451,23.3364448 C5.30906396,26.280934 4,29.9955584 4,33.79626 C4,42.9504747 11.3995251,50.3979649 20.494999,50.3979649 L40.7814308,50.3979649 C41.5636971,50.3979649 42.1975537,49.7598909 42.1975537,48.9728443 C42.1975537,48.1857977 41.5636971,47.5477237 40.7814308,47.5477237 L20.494999,47.5477237 C12.9614142,47.5477237 6.8322457,41.3788517 6.8322457,33.79626 C6.8322457,30.6482636 7.91624054,27.5717133 9.8846513,25.1338069 C11.8256837,22.7295335 14.5393527,21.0385804 17.5258614,20.372004 C18.1846417,20.2249315 18.6489412,19.6303712 18.6349688,18.9512537 C18.6330806,18.8621362 18.6313813,18.7730187 18.6313813,18.682381 C18.6313813,9.95247223 25.6887711,2.8502412 34.3635621,2.8502412 C38.0031866,2.8502412 41.419819,4.065014 44.2441344,6.36325849 C46.9885805,8.5967075 48.9277247,11.722662 49.7039488,15.1651834 C49.8028886,15.6035505 50.1014073,15.9693314 50.5096283,16.1519369 C50.9176605,16.3343523 51.3872469,16.3130705 51.7773415,16.0930319 C53.226696,15.2759627 54.8748742,14.8440562 56.5438222,14.8440562 C61.9400055,14.8440562 66.3301752,19.26117 66.3301752,24.6906894 C66.3301752,24.8890662 66.3220561,25.1041644 66.3050626,25.3485251 C66.2618237,25.9789985 66.6362465,26.5631079 67.224976,26.7829565 C71.3776147,28.3346278 74.1679431,32.3732296 74.1679431,36.832717 C74.1679431,42.7408869 69.391644,47.5477237 63.5205875,47.5477237 L56.6106632,47.5477237 L61.3178556,39.444678 C61.5738906,39.0040307 61.5761564,38.4590646 61.3235201,38.0161371 C61.0710726,37.5732096 60.6026191,37.3001565 60.0952695,37.3001565 L44.790569,37.3001565 C44.1829579,37.3001565 43.6431319,37.6902595 43.4488398,38.2696186 L36.8895476,57.8275937 C36.7437813,58.2625405 36.8149651,58.741571 37.0810074,59.1143826 C37.3470497,59.4871941 37.7752852,59.7083728 38.2314656,59.7083728 L43.4786728,59.7083728 L36.6616462,78.0760872 C36.4203389,78.7263222 36.6797726,79.4571241 37.2760547,79.8063736 C37.498858,79.9369147 37.7441305,80 37.9877037,80 C38.395547,80 38.7971595,79.822715 39.0745307,79.4892368 L58.9950365,55.5306793 C59.3479343,55.1061834 59.4247825,54.5144733 59.1919719,54.0130209 C58.9593502,53.5115684 58.4589868,53.1910113 57.9089646,53.1910113 L53.3320556,53.1910113 L54.9547436,50.3977749 L63.5203986,50.3977749 C70.9529666,50.3977749 77,44.3125099 77,36.832527 C77,31.5350687 73.889439,26.70638 69.1610992,24.508654 Z M49.6416394,53.897111 C49.3856044,54.3377583 49.3833386,54.8827245 49.635975,55.3256519 C49.8884225,55.7685794 50.3568759,56.0416325 50.8642255,56.0416325 L54.8775177,56.0416325 L42.2077497,71.279592 L46.8460241,58.7820444 C47.0082174,58.3444374 46.9474185,57.8545759 46.682698,57.4709335 C46.4181662,57.087101 45.9835109,56.8583216 45.5194002,56.8583216 L40.2042191,56.8583216 L45.807534,40.1505877 L57.6272506,40.1505877 L49.6416394,53.897111 Z" id="Shape"></path>
                    </g>
                </g>
            </g>
        </g>
    </g>
</svg>