<?xml version="1.0" encoding="UTF-8"?>
<svg width="60px" height="60px" viewBox="0 0 60 60" version="1.1" xmlns="http://www.w3.org/2000/svg" xmlns:xlink="http://www.w3.org/1999/xlink">
    <!-- Generator: sketchtool 62 (101010) - https://sketch.com -->
    <title>7BCFA026-C023-429E-9674-2FCEA2F1BE71</title>
    <desc>Created with sketchtool.</desc>
    <g id="Demand-Response_Customer" stroke="none" stroke-width="1" fill="none" fill-rule="evenodd">
        <g id="2.0-Dashboard_Empty" transform="translate(-176.000000, -163.000000)" fill="#FFFFFF">
            <g id="Group" transform="translate(8.000000, 96.000000)">
                <g id="Group-11" transform="translate(0.000000, 35.000000)">
                    <g id="Group-10" transform="translate(115.000000, 32.000000)">
                        <g id="forecast-data" transform="translate(53.000000, 0.000000)">
                            <circle id="Oval" opacity="0.300000012" cx="30.0000004" cy="30.0000004" r="30.0000004"></circle>
                            <g id="mobile/icon/emptystate/forecast" transform="translate(15.000000, 15.000000)">
                                <path d="M22.1026507,3.375 C22.4775454,3.375 22.7815663,3.67902085 22.7815663,4.05391561 L22.7815663,4.05391561 L22.7815663,4.82072179 L24.0199294,4.82072179 C25.2305746,4.82072179 26.2156162,5.80576341 26.2156162,7.01658395 L26.2156162,7.01658395 L26.2156162,24.1733247 C26.2156162,25.3839698 25.23075,26.3690114 24.0199294,26.3690114 L24.0199294,26.3690114 L5.94568681,26.3690114 C4.73504167,26.3690114 3.75,25.3839698 3.75,24.1733247 L3.75,24.1733247 L3.75,7.01658395 C3.75,5.80576341 4.73504167,4.82072179 5.94568681,4.82072179 L5.94568681,4.82072179 L7.18422539,4.82072179 L7.18422539,4.05391561 C7.18422539,3.67902085 7.48824625,3.375 7.86314103,3.375 C8.23821119,3.375 8.54223206,3.67902085 8.54223206,4.05391561 L8.54223206,4.05391561 L8.54223206,4.82072179 L9.87638019,4.82072179 L9.87638019,4.05391561 C9.87638019,3.67902085 10.1804011,3.375 10.5552958,3.375 C10.930366,3.375 11.2343869,3.67902085 11.2343869,4.05391561 L11.2343869,4.05391561 L11.2343869,4.82072179 L18.7315802,4.82072179 L18.7315802,4.05391561 C18.7315802,3.67902085 19.0356011,3.375 19.4104958,3.375 C19.785566,3.375 20.0895869,3.67902085 20.0895869,4.05391561 L20.0895869,4.05391561 L20.0895869,4.82072179 L21.423735,4.82072179 L21.423735,4.05391561 C21.423735,3.67902085 21.7277559,3.375 22.1026507,3.375 Z M24.8576085,10.4662471 L5.10783121,10.4662471 L5.10783121,24.1733244 C5.10783121,24.6352326 5.48377854,25.0111799 5.94568673,25.0111799 L5.94568673,25.0111799 L24.0199284,25.0111799 C24.4818366,25.0111799 24.8576085,24.6352326 24.8576085,24.1733244 L24.8576085,24.1733244 L24.8576085,10.4662471 Z M14.9829835,12.3487909 C17.9549498,12.3487909 20.3727314,14.7665726 20.3727314,17.7385389 C20.3727314,20.7105052 17.9549498,23.1284623 14.9829835,23.1284623 C12.0110171,23.1284623 9.59306002,20.7105052 9.59306002,17.7385389 C9.59306002,14.7665726 12.0108417,12.3487909 14.9829835,12.3487909 Z M14.9829832,13.7066221 C12.7597539,13.7066221 10.9508912,15.5153094 10.9508912,17.7385386 C10.9508912,19.9617679 12.7597539,21.7706306 14.9829832,21.7706306 C17.2062124,21.7706306 19.0148997,19.9617679 19.0148997,17.7385386 C19.0148997,15.5153094 17.2062124,13.7066221 14.9829832,13.7066221 Z M16.398005,16.0465119 C16.6630803,15.7814365 17.0930602,15.7814365 17.3581355,16.0465119 C17.6233863,16.3117626 17.6233863,16.741567 17.3581355,17.0068178 L17.3581355,17.0068178 L14.9342138,19.4307394 C14.8068514,19.5581019 14.6342279,19.6295021 14.4542363,19.6295021 C14.2740693,19.6295021 14.1014458,19.5579265 13.9740833,19.4307394 L13.9740833,19.4307394 L12.607656,18.0643121 C12.3425806,17.7990614 12.3425806,17.3690815 12.607656,17.1040062 C12.8729067,16.8389309 13.3027112,16.8389309 13.5679619,17.1040062 L13.5679619,17.1040062 L14.4542363,17.9902805 Z M7.1842253,6.17872846 L5.94568675,6.17872846 C5.48377855,6.17872846 5.10783121,6.55450034 5.10783121,7.01658401 L5.10783121,7.01658401 L5.10783121,9.10824054 L24.8577845,9.10824054 L24.8577845,7.01658401 C24.8577845,6.55450034 24.4818371,6.17872846 24.0199289,6.17872846 L24.0199289,6.17872846 L22.7817413,6.17872846 L22.7817413,6.94553467 C22.7817413,7.32042941 22.4777204,7.62445031 22.1026502,7.62445031 C21.7277555,7.62445031 21.4237346,7.32042941 21.4237346,6.94553467 L21.4237346,6.94553467 L21.4237346,6.17872846 L20.0895865,6.17872846 L20.0895865,6.94553467 C20.0895865,7.32042941 19.7855656,7.62445031 19.4106709,7.62445031 C19.0356007,7.62445031 18.7315799,7.32042941 18.7315799,6.94553467 L18.7315799,6.94553467 L18.7315799,6.17872846 L11.2343867,6.17872846 L11.2343867,6.94553467 C11.2343867,7.32042941 10.9303658,7.62445031 10.5554711,7.62445031 C10.1804009,7.62445031 9.87638004,7.32042941 9.87638004,6.94553467 L9.87638004,6.94553467 L9.87638004,6.17872846 L8.54223194,6.17872846 L8.54223194,6.94553467 C8.54223194,7.32042941 8.23821108,7.62445031 7.86331635,7.62445031 C7.48824616,7.62445031 7.1842253,7.32042941 7.1842253,6.94553467 L7.1842253,6.94553467 L7.1842253,6.17872846 Z" id="Combined-Shape"></path>
                            </g>
                        </g>
                    </g>
                </g>
            </g>
        </g>
    </g>
</svg>