<?xml version="1.0" encoding="UTF-8"?>
<svg width="12px" height="12px" viewBox="0 0 12 12" version="1.1" xmlns="http://www.w3.org/2000/svg" xmlns:xlink="http://www.w3.org/1999/xlink">
    <!-- Generator: sketchtool 61 (101010) - https://sketch.com -->
    <title>83743DC2-6CD7-4C8E-92FD-F81DCFDDF4EA</title>
    <desc>Created with sketchtool.</desc>
    <g id="Asset-Artboard-Page" stroke="none" stroke-width="1" fill="none" fill-rule="evenodd">
        <g id="icon/12px/solar-icon/12px/generator" fill="#0048A8">
            <path d="M9.91578947,1 L2.08421053,1 C0.934736842,1 0,1.99328859 0,3.2147651 L0,10.5973154 C0,10.8255034 0.164210526,11 0.378947368,11 L2.05894737,11 C2.21052632,11 2.33684211,10.9060403 2.4,10.7718121 L2.81684211,9.84563758 L9.18315789,9.84563758 L9.6,10.7718121 C9.66315789,10.9060403 9.80210526,11 9.94105263,11 L11.6210526,11 C11.8357895,11 12,10.8255034 12,10.5973154 L12,3.2147651 C12,1.99328859 11.0652632,1 9.91578947,1 Z M4.40842105,6.5033557 L4.40842105,6.5033557 C4.13052632,6.5033557 3.90315789,6.26174497 3.90315789,5.96644295 C3.90315789,5.77852349 3.99157895,5.60402685 4.14315789,5.51006711 L5.31789474,4.73154362 C5.34315789,4.70469799 5.38105263,4.70469799 5.40631579,4.70469799 C5.45684211,4.70469799 5.49473684,4.73154362 5.52,4.75838926 C5.57052632,4.81208054 5.59578947,4.89261745 5.54526316,4.97315436 L4.83789474,6.23489933 C4.74947368,6.40939597 4.57263158,6.5033557 4.40842105,6.5033557 Z M6.44210526,7.44295302 C6.39157895,7.52348993 6.30315789,7.55033557 6.22736842,7.53691275 L5.16631579,7.30872483 C5.10315789,7.29530201 5.06526316,7.25503356 5.02736842,7.2147651 C5.00210526,7.16107383 4.98947368,7.10738255 5.00210526,7.04026846 C5.02736842,6.93288591 5.11578947,6.85234899 5.21684211,6.85234899 C5.22947368,6.85234899 5.24210526,6.85234899 5.25473684,6.85234899 L6.16421053,7.04026846 L6.16421053,7.02684564 C6.30315789,6.7852349 6.37894737,6.5033557 6.41684211,6.20805369 L6.41684211,6.18120805 L6.08842105,6.18120805 C5.96210526,6.18120805 5.87368421,6.0738255 5.87368421,5.95302013 C5.87368421,5.81879195 5.97473684,5.72483221 6.08842105,5.72483221 L6.41684211,5.72483221 L6.41684211,5.69798658 C6.30315789,4.70469799 5.57052632,3.9261745 4.63578947,3.80536913 L4.61052632,3.80536913 L4.61052632,4.15436242 C4.61052632,4.27516779 4.50947368,4.38255034 4.39578947,4.38255034 C4.28210526,4.38255034 4.18105263,4.27516779 4.18105263,4.15436242 L4.18105263,3.80536913 L4.15578947,3.80536913 C3.78947368,3.84563758 3.43578947,4.00671141 3.13263158,4.24832215 L3.10736842,4.27516779 L3.33473684,4.51677852 C3.42315789,4.59731544 3.42315789,4.75838926 3.33473684,4.83892617 C3.25894737,4.93288591 3.10736842,4.93288591 3.03157895,4.83892617 L2.80421053,4.59731544 L2.79157895,4.62416107 C2.56421053,4.93288591 2.41263158,5.30872483 2.36210526,5.69798658 L2.36210526,5.73825503 L2.69052632,5.73825503 C2.81684211,5.73825503 2.90526316,5.84563758 2.90526316,5.96644295 C2.90526316,6.08724832 2.80421053,6.19463087 2.69052632,6.19463087 L2.36210526,6.19463087 L2.36210526,6.22147651 C2.4,6.51677852 2.47578947,6.7852349 2.61473684,7.04026846 L2.61473684,7.05369128 L3.52421053,6.86577181 C3.65052632,6.83892617 3.75157895,6.91946309 3.77684211,7.05369128 C3.78947368,7.10738255 3.77684211,7.17449664 3.73894737,7.22818792 C3.71368421,7.28187919 3.66315789,7.30872483 3.6,7.32214765 L2.55157895,7.55033557 C2.46315789,7.56375839 2.37473684,7.52348993 2.32421053,7.45637584 C2.04631579,7.01342282 1.89473684,6.5033557 1.89473684,5.97986577 C1.89473684,4.51677852 3.00631579,3.33557047 4.38315789,3.33557047 C5.76,3.33557047 6.87157895,4.51677852 6.87157895,5.97986577 C6.87157895,6.5033557 6.72,7 6.44210526,7.44295302 Z M10.0421053,5.22818792 L8.75368421,7.45637584 C8.71578947,7.52348993 8.65263158,7.53691275 8.60210526,7.51006711 C8.55157895,7.4966443 8.50105263,7.45637584 8.51368421,7.37583893 L8.60210526,5.84563758 L7.94526316,5.84563758 C7.89473684,5.84563758 7.85684211,5.81879195 7.83157895,5.77852349 C7.80631579,5.73825503 7.80631579,5.68456376 7.83157895,5.6442953 L9.10736842,3.41610738 C9.13263158,3.36241611 9.18315789,3.34899329 9.20842105,3.34899329 C9.22105263,3.34899329 9.23368421,3.34899329 9.24631579,3.34899329 C9.29684211,3.36241611 9.34736842,3.40268456 9.33473684,3.48322148 L9.24631579,5.01342282 L9.90315789,5.01342282 C9.95368421,5.01342282 9.99157895,5.04026846 10.0168421,5.08053691 C10.0673684,5.13422819 10.0673684,5.18791946 10.0421053,5.22818792 Z" id="Shape"></path>
        </g>
    </g>
</svg>