<?xml version="1.0" encoding="UTF-8"?>
<svg width="16px" height="13px" viewBox="0 0 16 13" version="1.1" xmlns="http://www.w3.org/2000/svg" xmlns:xlink="http://www.w3.org/1999/xlink">
    <!-- Generator: sketchtool 58 (101010) - https://sketch.com -->
    <title>8918FC34-E472-454F-A431-160F21B5DBD9</title>
    <desc>Created with sketchtool.</desc>
    <g id="Total-Flow" stroke="none" stroke-width="1" fill="none" fill-rule="evenodd" opacity="0.5">
        <g id="3.0-Dashboard_Sell-4" transform="translate(-122.000000, -344.000000)" fill="#0048A8">
            <g id="Group-12" transform="translate(8.000000, 235.000000)">
                <g id="Group-11" transform="translate(32.000000, 72.000000)">
                    <g id="Group-12-Copy-2" transform="translate(64.000000, 27.000000)">
                        <g id="icon/16px/generator" transform="translate(18.000000, 8.000000)">
                            <path d="M13.2210526,2 L2.77894737,2 C1.24631579,2 0,3.29127517 0,4.87919463 L0,14.4765101 C0,14.7731544 0.218947368,15 0.505263158,15 L2.74526316,15 C2.94736842,15 3.11578947,14.8778523 3.2,14.7033557 L3.75578947,13.4993289 L12.2442105,13.4993289 L12.8,14.7033557 C12.8842105,14.8778523 13.0694737,15 13.2547368,15 L15.4947368,15 C15.7810526,15 16,14.7731544 16,14.4765101 L16,4.87919463 C16,3.29127517 14.7536842,2 13.2210526,2 Z M5.87789474,9.15436242 L5.87789474,9.15436242 C5.50736842,9.15436242 5.20421053,8.84026846 5.20421053,8.45637584 C5.20421053,8.21208054 5.32210526,7.9852349 5.52421053,7.86308725 L7.09052632,6.85100671 C7.12421053,6.81610738 7.17473684,6.81610738 7.20842105,6.81610738 C7.27578947,6.81610738 7.32631579,6.85100671 7.36,6.88590604 C7.42736842,6.9557047 7.46105263,7.06040268 7.39368421,7.16510067 L6.45052632,8.80536913 C6.33263158,9.03221477 6.09684211,9.15436242 5.87789474,9.15436242 Z M8.58947368,10.3758389 C8.52210526,10.4805369 8.40421053,10.5154362 8.30315789,10.4979866 L6.88842105,10.2013423 C6.80421053,10.1838926 6.75368421,10.1315436 6.70315789,10.0791946 C6.66947368,10.009396 6.65263158,9.93959732 6.66947368,9.85234899 C6.70315789,9.71275168 6.82105263,9.60805369 6.95578947,9.60805369 C6.97263158,9.60805369 6.98947368,9.60805369 7.00631579,9.60805369 L8.21894737,9.85234899 L8.21894737,9.83489933 C8.40421053,9.52080537 8.50526316,9.15436242 8.55578947,8.7704698 L8.55578947,8.73557047 L8.11789474,8.73557047 C7.94947368,8.73557047 7.83157895,8.59597315 7.83157895,8.43892617 C7.83157895,8.26442953 7.96631579,8.14228188 8.11789474,8.14228188 L8.55578947,8.14228188 L8.55578947,8.10738255 C8.40421053,6.81610738 7.42736842,5.80402685 6.18105263,5.64697987 L6.14736842,5.64697987 L6.14736842,6.10067114 C6.14736842,6.25771812 6.01263158,6.39731544 5.86105263,6.39731544 C5.70947368,6.39731544 5.57473684,6.25771812 5.57473684,6.10067114 L5.57473684,5.64697987 L5.54105263,5.64697987 C5.05263158,5.69932886 4.58105263,5.90872483 4.17684211,6.22281879 L4.14315789,6.25771812 L4.44631579,6.57181208 C4.56421053,6.67651007 4.56421053,6.88590604 4.44631579,6.99060403 C4.34526316,7.11275168 4.14315789,7.11275168 4.04210526,6.99060403 L3.73894737,6.67651007 L3.72210526,6.7114094 C3.41894737,7.11275168 3.21684211,7.60134228 3.14947368,8.10738255 L3.14947368,8.15973154 L3.58736842,8.15973154 C3.75578947,8.15973154 3.87368421,8.29932886 3.87368421,8.45637584 C3.87368421,8.61342282 3.73894737,8.75302013 3.58736842,8.75302013 L3.14947368,8.75302013 L3.14947368,8.78791946 C3.2,9.17181208 3.30105263,9.52080537 3.48631579,9.85234899 L3.48631579,9.86979866 L4.69894737,9.62550336 C4.86736842,9.59060403 5.00210526,9.69530201 5.03578947,9.86979866 C5.05263158,9.93959732 5.03578947,10.0268456 4.98526316,10.0966443 C4.95157895,10.166443 4.88421053,10.2013423 4.8,10.2187919 L3.40210526,10.5154362 C3.28421053,10.5328859 3.16631579,10.4805369 3.09894737,10.3932886 C2.72842105,9.81744966 2.52631579,9.15436242 2.52631579,8.4738255 C2.52631579,6.57181208 4.00842105,5.03624161 5.84421053,5.03624161 C7.68,5.03624161 9.16210526,6.57181208 9.16210526,8.4738255 C9.16210526,9.15436242 8.96,9.8 8.58947368,10.3758389 Z M13.3894737,7.4966443 L11.6715789,10.3932886 C11.6210526,10.4805369 11.5368421,10.4979866 11.4694737,10.4630872 C11.4021053,10.4456376 11.3347368,10.3932886 11.3515789,10.2885906 L11.4694737,8.29932886 L10.5936842,8.29932886 C10.5263158,8.29932886 10.4757895,8.26442953 10.4421053,8.21208054 C10.4084211,8.15973154 10.4084211,8.08993289 10.4421053,8.03758389 L12.1431579,5.1409396 C12.1768421,5.07114094 12.2442105,5.05369128 12.2778947,5.05369128 C12.2947368,5.05369128 12.3115789,5.05369128 12.3284211,5.05369128 C12.3957895,5.07114094 12.4631579,5.12348993 12.4463158,5.22818792 L12.3284211,7.21744966 L13.2042105,7.21744966 C13.2715789,7.21744966 13.3221053,7.25234899 13.3557895,7.30469799 C13.4231579,7.37449664 13.4231579,7.4442953 13.3894737,7.4966443 Z" id="Shape"></path>
                        </g>
                    </g>
                </g>
            </g>
        </g>
    </g>
</svg>