<?xml version="1.0" encoding="UTF-8"?>
<svg width="20px" height="20px" viewBox="0 0 20 20" version="1.1" xmlns="http://www.w3.org/2000/svg" xmlns:xlink="http://www.w3.org/1999/xlink">
    <title>8B2D6777-2294-4B91-B348-DF5F35AD6E69</title>
    <defs>
        <rect id="path-1" x="0" y="0" width="396" height="137" rx="4"></rect>
        <filter x="-1.8%" y="-3.6%" width="103.5%" height="110.2%" filterUnits="objectBoundingBox" id="filter-2">
            <feOffset dx="0" dy="2" in="SourceAlpha" result="shadowOffsetOuter1"></feOffset>
            <feGaussianBlur stdDeviation="2" in="shadowOffsetOuter1" result="shadowBlurOuter1"></feGaussianBlur>
            <feColorMatrix values="0 0 0 0 0   0 0 0 0 0   0 0 0 0 0  0 0 0 0.15 0" type="matrix" in="shadowBlurOuter1"></feColorMatrix>
        </filter>
    </defs>
    <g id="Total-Flow" stroke="none" stroke-width="1" fill="none" fill-rule="evenodd">
        <g id="6.19-Manage-Orders---underprocess-sell-order" transform="translate(-27.000000, -330.000000)">
            <rect fill="#0048A8" x="0" y="0" width="412" height="732"></rect>
            <g id="Group" transform="translate(8.000000, 225.000000)">
                <g id="Rectangle">
                    <use fill="black" fill-opacity="1" filter="url(#filter-2)" xlink:href="#path-1"></use>
                    <use fill="#FFFFFF" fill-rule="evenodd" xlink:href="#path-1"></use>
                </g>
                <g id="Group-2" transform="translate(19.000000, 102.000000)">
                    <g id="buy-copy-6" transform="translate(0.000000, 3.000000)">
                        <rect id="Rectangle" fill="#F7B500" transform="translate(10.000000, 10.000000) scale(-1, -1) translate(-10.000000, -10.000000) " x="0" y="0" width="20" height="20" rx="10"></rect>
                        <path d="M10,13.5 C10.5533854,13.5 11,13.9466146 11,14.5 C11,15.0532986 10.5533854,15.5 10,15.5 C9.44661458,15.5 9,15.0532986 9,14.5 C9,13.9466146 9.44661458,13.5 10,13.5 Z M9.925,4.5 C10.270178,4.5 10.55,4.77982203 10.55,5.125 L10.55,5.125 L10.55,11.7851562 C10.55,12.1303342 10.270178,12.4101562 9.925,12.4101562 C9.57982203,12.4101562 9.3,12.1303342 9.3,11.7851562 L9.3,11.7851562 L9.3,5.125 C9.3,4.77982203 9.57982203,4.5 9.925,4.5 Z" id="Combined-Shape" fill="#FFFFFF" fill-rule="nonzero"></path>
                    </g>
                </g>
            </g>
        </g>
    </g>
</svg>