<?xml version="1.0" encoding="UTF-8"?>
<svg width="19px" height="19px" viewBox="0 0 19 19" version="1.1" xmlns="http://www.w3.org/2000/svg" xmlns:xlink="http://www.w3.org/1999/xlink">
    <title>information</title>
    <g id="DR_Customers" stroke="none" stroke-width="1" fill="none" fill-rule="evenodd">
        <g id="6.2-Event-participation_loadshift" transform="translate(-29.000000, -243.000000)" fill="#000000" fill-rule="nonzero">
            <g id="information" transform="translate(29.000000, 243.000000)">
                <path d="M9.24000012,0 C4.14506405,0 0,4.14512005 0,9.24005612 C0,14.3349922 4.14506405,18.4800002 9.24000012,18.4800002 C14.3349362,18.4800002 18.4800002,14.3349922 18.4800002,9.24005612 C18.4800002,4.14512005 14.3349362,0 9.24000012,0 Z M9.24000012,16.8000002 C5.07136006,16.8000002 1.68000002,13.4086402 1.68000002,9.24005612 C1.68000002,5.07147206 5.07136006,1.68000002 9.24000012,1.68000002 C13.4086402,1.68000002 16.8000002,5.07147206 16.8000002,9.24005612 C16.8000002,13.4086402 13.4085842,16.8000002 9.24000012,16.8000002 Z" id="Shape"></path>
                <path d="M9.23988812,3.92000005 C8.62243211,3.92000005 8.1201121,4.42265606 8.1201121,5.04050406 C8.1201121,5.65779207 8.62243211,6.16000008 9.23988812,6.16000008 C9.85734413,6.16000008 10.3596641,5.65779207 10.3596641,5.04050406 C10.3596641,4.42265606 9.85734413,3.92000005 9.23988812,3.92000005 Z" id="Path"></path>
                <path d="M9.24000012,7.8400001 C8.77609611,7.8400001 8.40000011,8.2160961 8.40000011,8.68000011 L8.40000011,13.7200002 C8.40000011,14.1839042 8.77609611,14.5600002 9.24000012,14.5600002 C9.70390412,14.5600002 10.0800001,14.1839042 10.0800001,13.7200002 L10.0800001,8.68000011 C10.0800001,8.2160961 9.70390412,7.8400001 9.24000012,7.8400001 Z" id="Path"></path>
            </g>
        </g>
    </g>
</svg>