<?xml version="1.0" encoding="UTF-8"?>
<svg width="40px" height="40px" viewBox="0 0 40 40" version="1.1" xmlns="http://www.w3.org/2000/svg" xmlns:xlink="http://www.w3.org/1999/xlink">
    <!-- Generator: sketchtool 60.1 (101010) - https://sketch.com -->
    <title>370362E1-497B-4B77-824C-A4A64C84E1D4</title>
    <desc>Created with sketchtool.</desc>
    <g id="Asset-Artboard-Page" stroke="none" stroke-width="1" fill="none" fill-rule="evenodd">
        <g id="icon/40px/success-copy-icon/40px/invalid" fill="#D0021B" fill-rule="nonzero">
            <g id="warning-(1)" transform="translate(3.000000, 4.000000)">
                <path d="M17,0 C18.8326562,0 20.4663532,0.987971991 21.3628373,2.60107319 L21.3628373,2.60107319 L33.374323,24.5191907 C34.231119,26.0918594 34.2111452,27.967247 33.2946874,29.5196994 C32.3982033,31.0724143 30.7844801,32 29.0114857,32 L29.0114857,32 L4.98851427,32 C3.21551987,32 1.60179669,31.0724143 0.70531262,29.5196994 C-0.211145245,27.967247 -0.231118976,26.0918594 0.625677011,24.5191907 L0.625677011,24.5191907 L12.6371627,2.60107319 C13.5336468,0.987971991 15.1673438,0 17,0 Z M17,23 C15.8932292,23 15,23.8932292 15,25 C15,26.1065972 15.8932292,27 17,27 C18.1067708,27 19,26.1065972 19,25 C19,23.8932292 18.1067708,23 17,23 Z M16.85,5 C16.1596441,5 15.6,5.55964406 15.6,6.25 L15.6,6.25 L15.6,19.5703125 L15.6064536,19.6981177 C15.6704661,20.3284378 16.2027913,20.8203125 16.85,20.8203125 C17.5403559,20.8203125 18.1,20.2606684 18.1,19.5703125 L18.1,19.5703125 L18.1,6.25 L18.0935464,6.12219476 C18.0295339,5.49187466 17.4972087,5 16.85,5 Z" id="Combined-Shape"></path>
            </g>
        </g>
    </g>
</svg>