<?xml version="1.0" encoding="UTF-8"?>
<svg width="12px" height="12px" viewBox="0 0 12 12" version="1.1" xmlns="http://www.w3.org/2000/svg" xmlns:xlink="http://www.w3.org/1999/xlink">
    <!-- Generator: sketchtool 61 (101010) - https://sketch.com -->
    <title>5297D585-27D9-4860-A62D-48AEF9E0BDFB</title>
    <desc>Created with sketchtool.</desc>
    <g id="Asset-Artboard-Page" stroke="none" stroke-width="1" fill="none" fill-rule="evenodd">
        <g id="icon/12px/solar-icon/12px/ev" fill="#0048A8">
            <path d="M3.98264642,1.96636957 C3.7483731,2.29575643 3.72234273,2.71382436 3.90455531,3.06854867 L3.90455531,3.06854867 L3.90455531,3.0812174 L2.62906725,3.1825672 L1.92624729,5.98235549 L10.0737527,5.98235549 L9.3318872,3.19523592 L8.01735358,3.09388612 C8.23861171,2.76449926 8.26464208,2.35910005 8.0824295,2.00437575 C8.06941432,2.00437575 8.06941432,1.99170702 8.06941432,1.99170702 L8.06941432,1.99170702 L9.61822126,2.11839427 C9.96963124,2.14373172 10.2559653,2.37176878 10.373102,2.68848691 L10.373102,2.68848691 L11.1409978,5.60229373 L11.5444685,5.60229373 C11.791757,5.60229373 11.9869848,5.77965588 12,6.00769294 L12,6.00769294 L12,6.66646665 C12,6.89450371 11.8047722,7.08453459 11.5574837,7.08453459 L11.5574837,7.08453459 L11.4924078,7.08453459 L11.7527115,9.08619318 C11.7396963,9.61827965 11.3882863,10.0743538 10.8937093,10.2517159 L10.8937093,10.2517159 L10.8937093,11.5312572 C10.8937093,11.7846317 10.6854664,12 10.4121475,12 L10.4121475,12 L9.78741866,12 C9.52711497,12 9.30585683,11.7973004 9.30585683,11.5312572 L9.30585683,11.5312572 L9.30585683,10.340397 L2.68112798,10.340397 L2.68112798,11.5312572 C2.68112798,11.7846317 2.47288503,12 2.19956616,12 L2.19956616,12 L1.57483731,12 C1.31453362,12 1.09327549,11.7973004 1.09327549,11.5312572 L1.09327549,11.5312572 L1.09327549,10.2517159 C0.598698482,10.0743538 0.247288503,9.60561092 0.247288503,9.06085573 L0.247288503,9.06085573 L0.546637744,7.08453459 L0.442516269,7.08453459 C0.195227766,7.08453459 -1.687539e-13,6.90717243 -1.687539e-13,6.66646665 L-1.687539e-13,6.66646665 L-1.687539e-13,6.00769294 C-1.687539e-13,5.76698716 0.195227766,5.57695628 0.442516269,5.57695628 L0.442516269,5.57695628 L0.872017354,5.57695628 L1.60086768,2.67581819 C1.70498915,2.34643133 2.00433839,2.11839427 2.35574837,2.09305682 L2.35574837,2.09305682 Z M2.87635575,7.37591527 C2.4208243,7.37591527 2.05639913,7.73063958 2.05639913,8.17404496 C2.05639913,8.61745035 2.4208243,8.97217466 2.87635575,8.97217466 C3.31887202,8.97217466 3.68329718,8.61745035 3.69631236,8.17404496 C3.69631236,7.73063958 3.3318872,7.37591527 2.87635575,7.37591527 Z M9.09761388,7.37591527 C8.64208243,7.37591527 8.27765727,7.73063958 8.27765727,8.17404496 C8.27765727,8.61745035 8.64208243,8.97217466 9.09761388,8.97217466 C9.55314534,8.97217466 9.9175705,8.61745035 9.9175705,8.17404496 C9.9175705,7.73063958 9.55314534,7.37591527 9.09761388,7.37591527 Z M6.18221258,0.104066952 C6.33839479,-0.0986326526 6.6637744,0.015385875 6.65075922,0.268760381 L6.65075922,0.268760381 L6.54663774,2.01704447 L7.0802603,2.01704447 C7.50976139,2.01704447 7.74403471,2.48578731 7.4967462,2.81517416 L7.4967462,2.81517416 L5.80477223,5.01953236 C5.64859002,5.22223197 5.32321041,5.10821344 5.3362256,4.85483894 L5.3362256,4.85483894 L5.44034707,3.10655485 L4.90672451,3.10655485 C4.47722343,3.10655485 4.22993492,2.63781201 4.49023861,2.30842515 L4.49023861,2.30842515 Z" id="Combined-Shape"></path>
        </g>
    </g>
</svg>