<?xml version="1.0" encoding="UTF-8"?>
<svg width="21px" height="25px" viewBox="0 0 21 25" version="1.1" xmlns="http://www.w3.org/2000/svg" xmlns:xlink="http://www.w3.org/1999/xlink">
    <!-- Generator: sketchtool 58 (101010) - https://sketch.com -->
    <title>DBB622F7-4880-430D-8B95-E2259DC2CB98</title>
    <desc>Created with sketchtool.</desc>
    <g id="Total-Flow" stroke="none" stroke-width="1" fill="none" fill-rule="evenodd">
        <g id="3.0-Dashboard_Sell-4" transform="translate(-365.000000, -34.000000)" fill="#FFFFFF" fill-rule="nonzero" stroke="#FFFFFF" stroke-width="0.5">
            <g id="icon/24px/notifications" transform="translate(364.000000, 34.000000)">
                <g id="notification" transform="translate(2.000000, 1.000000)">
                    <path d="M9.6,-2.22044605e-15 C10.6053298,-2.22044605e-15 11.4318306,0.778628012 11.5082653,1.7646468 L11.5140336,1.91403364 L11.5140541,3.62823397 C14.1965983,4.42973228 16.1795161,6.87085335 16.2938378,9.78262737 L16.2990505,10.0485981 L16.2990505,12.4478355 C16.2990505,13.8091583 16.6407325,15.1468206 17.2894483,16.3388828 L17.4580037,16.6337944 L19.1021607,19.3727551 C19.1911626,19.5201196 19.1930467,19.7048075 19.1088,19.8541458 C19.0378467,19.9793794 18.9150243,20.0647065 18.7763659,20.0896702 L18.6915589,20.0972411 L11.946024,20.0967325 C11.9780681,20.2534896 11.9944374,20.4139699 11.9944374,20.5757159 C11.9925084,21.8954019 10.9197308,22.9682243 9.6,22.9682243 C8.28026916,22.9682243 7.20744673,21.8954019 7.20744673,20.5757159 C7.20744673,20.4139699 7.22381606,20.2534896 7.25586013,20.0967325 L0.508396262,20.0972411 C0.336134579,20.0972411 0.176343925,20.0043813 0.0911551402,19.8541458 C0.023757757,19.734711 0.0115128224,19.5925951 0.0548797009,19.4650756 L0.0978392523,19.3727551 L1.74199626,16.6337944 C2.44164371,15.4668457 2.83714481,14.1441353 2.89385121,12.7876027 L2.90094953,12.4478355 L2.90094953,10.0485981 C2.90094953,7.02030571 4.92211252,4.45402011 7.68594588,3.62823397 L7.68596636,1.91403364 C7.68596636,0.858437383 8.54440374,-2.22044605e-15 9.6,-2.22044605e-15 Z M10.9537497,20.097133 L8.24813446,20.097133 C8.19404698,20.2498912 8.16542804,20.4135839 8.16542804,20.575671 C8.16542804,21.3671327 8.80948037,22.011185 9.60094206,22.011185 C10.3924037,22.011185 11.0364561,21.3671327 11.0364561,20.575671 C11.0364561,20.4135839 11.0078371,20.2498912 10.9537497,20.097133 Z M9.6,4.30654206 C6.50690128,4.30654206 3.97804575,6.76346506 3.86209741,9.82864706 L3.85794393,10.0485981 L3.85794393,12.4478355 C3.85794393,13.9780935 3.47176136,15.4819329 2.73771996,16.8199229 L2.56216822,17.1256822 L1.35346542,19.1402019 L17.8465346,19.1402019 L16.6368897,17.1256822 C15.8504331,15.8140326 15.4080751,14.325808 15.3488936,12.8004395 L15.3420561,12.4478355 L15.3420561,10.0485981 C15.3420561,6.88185421 12.7667439,4.30654206 9.6,4.30654206 Z M9.6,0.957039252 C9.10946435,0.957039252 8.70475995,1.3267054 8.64944776,1.80247671 L8.64300561,1.91403364 L8.64330797,3.41769584 C8.95584165,3.37278922 9.27526449,3.34954766 9.6,3.34954766 C9.92473551,3.34954766 10.2441584,3.37278922 10.556692,3.41769584 L10.5569944,1.91403364 C10.5569944,1.38576449 10.1282692,0.957039252 9.6,0.957039252 Z" id="Combined-Shape"></path>
                </g>
            </g>
        </g>
    </g>
</svg>