<?xml version="1.0" encoding="UTF-8"?>
<svg width="41px" height="44px" viewBox="0 0 41 44" version="1.1" xmlns="http://www.w3.org/2000/svg" xmlns:xlink="http://www.w3.org/1999/xlink">
    <!-- Generator: sketchtool 62 (101010) - https://sketch.com -->
    <title>5FB83DBE-24EF-4EE4-A8E1-5D6435A54762</title>
    <desc>Created with sketchtool.</desc>
    <g id="Login-for-P2P-&amp;-DR_Customers" stroke="none" stroke-width="1" fill="none" fill-rule="evenodd">
        <g id="Register-for-P2P-&amp;-DR" transform="translate(-186.000000, -271.000000)" fill-rule="nonzero">
            <g id="Group-3" transform="translate(78.000000, 174.000000)">
                <g id="Group-7" transform="translate(18.000000, 70.000000)">
                    <g id="Group-4" transform="translate(64.000000, 28.000000)">
                        <g id="P2P" transform="translate(27.000000, 0.000000)">
                            <path d="M3.01942159,41.7391304 C2.70208123,41.7391304 2.3829808,41.6447196 2.10418593,41.4508531 C1.4438082,40.9921319 1.20479089,40.1114447 1.53920392,39.3698513 L8.8070551,23.2501051 L1.63090349,23.2501051 C1.08264213,23.2501051 0.5711662,22.9681339 0.269314438,22.4995031 C-0.0323613164,22.0308723 -0.0841073327,21.4386426 0.131853082,20.9228064 L8.46771388,1.01185334 C8.72468389,0.398002854 9.31430687,0 9.96676429,0 L21.0814214,0 C21.6300347,0 22.1418627,0.282331585 22.4435384,0.751322726 C22.7453902,1.22049404 22.7964322,1.81326425 22.5795917,2.32928062 L19.3540901,10.0068259 L28.412283,11.3247937 C29.0166906,11.4127183 29.5225343,11.8390084 29.7231821,12.4292562 C29.9236539,13.0195039 29.7853125,13.6753348 29.3646561,14.1282905 L4.20201167,41.2200511 C3.88431929,41.5620201 3.45363051,41.7391304 3.01942159,41.7391304 Z M4.10432787,19.9111333 L11.3561624,19.9111333 C11.9123441,19.9111333 12.4303323,20.2012123 12.730072,20.6808337 C13.0298116,21.1602749 13.0701172,21.7633149 12.8370841,22.2802322 L8.63439238,31.6020392 L24.8205111,14.1749554 L16.7842139,13.0056306 C16.2813623,12.9324802 15.8402891,12.6236632 15.5917675,12.1701669 C15.3428938,11.7168509 15.3147327,11.1707456 15.5153805,10.6931061 L18.6048289,3.33915206 L11.0425182,3.33915206 L4.10432787,19.9111333 Z" id="Shape" stroke="#FFFFFF" stroke-width="1.50558957" fill="#0048A8"></path>
                            <g id="Group-5" transform="translate(14.310559, 16.695652)" stroke="#0048A8">
                                <path d="M11.9254658,-3.39824787e-13 C5.33921292,-3.39824787e-13 5.56076924e-14,5.33921292 5.56076924e-14,11.9254658 C5.56076924e-14,18.5117188 5.33921292,23.8509317 11.9254658,23.8509317 C18.5117188,23.8509317 23.8509317,18.5117188 23.8509317,11.9254658 C23.8509317,5.33921292 18.5117188,-3.39824787e-13 11.9254658,-3.39824787e-13 Z" id="Oval" stroke-width="1.73913043" fill="#FFFFFF"></path>
                                <path d="M12.5342325,7.04278261 L15.9581189,7.04278261 L17.7475067,5.96273292 L7.89281278,5.96273292 L6.10342502,7.04278261 L9.16287489,7.04278261 C11.2478438,7.04278261 12.9538953,8.29045135 13.0786868,9.85834534 L7.89281278,9.85834534 L6.10342502,10.9386865 L12.9104525,10.9386865 C12.4097249,12.154872 10.9191837,13.0397549 9.16287489,13.0397549 L7.89281278,13.0397549 L13.7770364,19.0807453 L15.2647382,19.0807453 L10.3239042,14.0080099 C12.1605679,13.6474104 13.6004259,12.4500273 14.0169654,10.9385408 L15.9582609,10.9385408 L17.7476486,9.85834534 L14.1370719,9.85834534 C14.0770186,8.74710393 13.4713753,7.75013499 12.5342325,7.04278261 Z" id="Path" stroke-width="0.869565217" fill="#0048A8" stroke-linejoin="round"></path>
                            </g>
                        </g>
                    </g>
                </g>
            </g>
        </g>
    </g>
</svg>