<svg xmlns="http://www.w3.org/2000/svg" xmlns:xlink="http://www.w3.org/1999/xlink" width="41" height="44" version="1.1" style=""><rect id="backgroundrect" width="100%" height="100%" x="0" y="0" fill="none" stroke="none"/>
    <!-- Generator: sketchtool 62 (101010) - https://sketch.com -->
    <title>5FB83DBE-24EF-4EE4-A8E1-5D6435A54762</title>
    <desc>Created with sketchtool.</desc>
    
<g class="currentLayer" style=""><title>Layer 1</title><g id="Login-for-P2P-&amp;-DR_Customers" stroke="#0b0bd5" stroke-width="0" fill="#ffffff" fill-rule="evenodd" class="" fill-opacity="1" stroke-opacity="1">
        <g id="Register-for-P2P-&amp;-DR" fill-rule="nonzero" fill="#ffffff" fill-opacity="1" stroke="#0b0bd5" stroke-opacity="1" stroke-width="0">
            <g id="Group-3" fill="#ffffff" fill-opacity="1" stroke="#0b0bd5" stroke-opacity="1" stroke-width="0">
                <g id="Group-7" fill="#ffffff" fill-opacity="1" stroke="#0b0bd5" stroke-opacity="1" stroke-width="0">
                    <g id="Group-4" fill="#ffffff" fill-opacity="1" stroke="#0b0bd5" stroke-opacity="1" stroke-width="0">
                        <g id="P2P" fill="#ffffff" fill-opacity="1" stroke="#0b0bd5" stroke-opacity="1" stroke-width="0">
                            <path d="M4.019421590000007,42.73913039999999 C3.7020812300000046,42.73913039999999 3.3829808000000128,42.6447196 3.10418593,42.45085310000002 C2.4438082000000065,41.992131900000004 2.204790889999998,41.11144469999999 2.5392039200000056,40.36985129999999 L9.807055100000014,24.250105099999985 L2.6309034900000086,24.250105099999985 C2.0826421300000106,24.250105099999985 1.5711661999999933,23.968133899999998 1.2693144380000092,23.4995031 C0.9676386836000006,23.0308723 0.9158926672999996,22.43864260000001 1.1318530819999921,21.922806400000013 L9.467713879999991,2.011853340000016 C9.724683889999994,1.3980028540000262 10.314306869999996,1 10.966764290000015,1 L22.08142140000001,1 C22.63003470000001,1 23.14186269999999,1.2823315850000085 23.443538399999994,1.7513227260000122 C23.745390200000003,2.2204940400000055 23.796432199999998,2.8132642499999747 23.57959170000001,3.32928062000002 L20.354090100000008,11.006825900000024 L29.412283000000002,12.324793699999987 C30.016690600000004,12.412718299999995 30.52253429999999,12.839008400000012 30.723182100000002,13.429256199999998 C30.923653900000005,14.019503900000018 30.785312500000003,14.675334799999973 30.36465609999999,15.128290499999991 L5.20201166999999,42.220051100000006 C4.884319290000008,42.562020099999984 4.453630510000011,42.73913039999999 4.019421590000007,42.73913039999999 zM5.104327869999992,20.91113329999999 L12.356162399999988,20.91113329999999 C12.912344100000013,20.91113329999999 13.430332300000003,21.20121230000001 13.730072000000007,21.680833699999994 C14.029811599999988,22.16027489999999 14.070117199999999,22.76331490000001 13.837084099999998,23.2802322 L9.634392380000008,32.60203920000001 L25.820511100000004,15.174955399999988 L17.784213899999997,14.005630600000018 C17.281362300000012,13.932480199999986 16.840289100000007,13.62366320000001 16.591767500000003,13.170166900000027 C16.342893800000013,12.716850899999997 16.314732700000008,12.170745599999975 16.515380499999992,11.693106100000023 L19.6048289,4.3391520600000035 L12.04251819999999,4.3391520600000035 L5.104327869999992,20.91113329999999 z" id="Shape" stroke="#0b0bd5" stroke-width="0" fill="#ffffff" fill-opacity="1" stroke-opacity="1"/>
                            <g id="Group-5" stroke="#0b0bd5" fill="#ffffff" fill-opacity="1" stroke-opacity="1" stroke-width="0">
                                <path d="M27.236025072766125,17.6956520080563 C20.649772192766108,17.6956520080563 15.31055927276617,23.034864928056663 15.31055927276617,29.621117808056624 C15.31055927276617,36.20737080805665 20.649772192766108,41.54658370805663 27.236025072766125,41.54658370805663 C33.822278072766125,41.54658370805663 39.1614909727661,36.20737080805665 39.1614909727661,29.621117808056624 C39.1614909727661,23.034864928056663 33.822278072766125,17.6956520080563 27.236025072766125,17.6956520080563 z" id="Oval" stroke-width="0" fill="#ffffff" fill-opacity="1" stroke="#0b0bd5" stroke-opacity="1"/>
                                <path d="M27.844791772766115,24.738434618056658 L31.2686781727661,24.738434618056658 L33.058065972766116,23.65838492805665 L23.2033720527661,23.65838492805665 L21.413984292766116,24.738434618056658 L24.473434162766125,24.738434618056658 C26.55840307276611,24.738434618056658 28.264454572766113,25.986103358056653 28.389246072766127,27.55399734805667 L23.2033720527661,27.55399734805667 L21.413984292766116,28.634338508056658 L28.221011772766104,28.634338508056658 C27.720284172766128,29.850524008056652 26.229742972766104,30.735406908056632 24.473434162766125,30.735406908056632 L23.2033720527661,30.735406908056632 L29.0875956727661,36.77639730805663 L30.575297472766124,36.77639730805663 L25.6344634727661,31.70366190805663 C27.471127172766103,31.343062408056653 28.910985172766118,30.14567930805663 29.327524672766117,28.63419280805664 L31.268820172766112,28.63419280805664 L33.058207872766104,27.55399734805667 L29.44763117276611,27.55399734805667 C29.387577872766116,26.44275593805662 28.78193457276612,25.445786998056633 27.844791772766115,24.738434618056658 z" id="Path" stroke-width="0" fill="#ffffff" stroke-linejoin="round" fill-opacity="1" stroke="#0b0bd5" stroke-opacity="1"/>
                            </g>
                        </g>
                    </g>
                </g>
            </g>
        </g>
    </g></g></svg>