<?xml version="1.0" encoding="UTF-8"?>
<svg width="13px" height="12px" viewBox="0 0 13 12" version="1.1" xmlns="http://www.w3.org/2000/svg" xmlns:xlink="http://www.w3.org/1999/xlink">
    <!-- Generator: sketchtool 62 (101010) - https://sketch.com -->
    <title>BBE04664-C22E-4818-804D-125CE16B54A7</title>
    <desc>Created with sketchtool.</desc>
    <g id="Asset-Artboard-Page" stroke="none" stroke-width="1" fill="none" fill-rule="evenodd" opacity="0.5">
        <g id="mobile/icon/10px/chevron-down-copy-mobile/icon/12px/rupee" transform="translate(0.333333, 0.000000)" fill="#0048A8">
            <path d="M7.84188912,10.5 L7.84188912,10.4258242 L4.80492813,6.89010989 C5.70431211,6.89010989 6.40657084,6.70467033 6.91170431,6.33379121 C7.41683778,5.96291209 7.7063655,5.41071429 7.78028747,4.6771978 L7.78028747,4.6771978 L8.71663244,4.6771978 L9,3.70054945 L7.76180698,3.70054945 C7.69199179,3.21840659 7.52566735,2.81043956 7.26283368,2.47664835 L7.26283368,2.47664835 L8.71663244,2.47664835 L9,1.5 L3.30184805,1.5 L3.01232033,2.47664835 L4.74332649,2.47664835 C5.75359343,2.50961538 6.35728953,2.91758242 6.55441478,3.70054945 L6.55441478,3.70054945 L3.28336756,3.70054945 L3,4.6771978 L6.56673511,4.6771978 C6.48049281,5.05631868 6.27720739,5.35611264 5.95687885,5.57657967 C5.63655031,5.7970467 5.21971253,5.90934066 4.7063655,5.91346154 L4.7063655,5.91346154 L3.1724846,5.91346154 L3.17864476,6.68612637 L6.44353183,10.5 L7.84188912,10.5 Z" id="₹"></path>
        </g>
    </g>
</svg>