<?xml version="1.0" encoding="UTF-8"?>
<svg width="24px" height="24px" viewBox="0 0 24 24" version="1.1" xmlns="http://www.w3.org/2000/svg" xmlns:xlink="http://www.w3.org/1999/xlink">
    <!-- Generator: sketchtool 59.1 (101010) - https://sketch.com -->
    <title>712AE2DC-5313-4ECA-8524-9139A4473EAE</title>
    <desc>Created with sketchtool.</desc>
    <g id="Total-Flow" stroke="none" stroke-width="1" fill="none" fill-rule="evenodd">
        <g id="Navigation-2" transform="translate(-32.000000, -313.000000)" fill-rule="nonzero">
            <g id="Group-24">
                <g id="Group-20" transform="translate(32.000000, 313.000000)">
                    <g id="icon/40px/sell-copy-6">
                        <rect id="Rectangle" stroke="#7F7F7F" transform="translate(12.000000, 12.000000) scale(-1, -1) translate(-12.000000, -12.000000) " x="0.5" y="0.5" width="23" height="23" rx="11.5"></rect>
                        <path d="M15.3131651,7.45510055 C15.6532991,7.11496648 16.2047654,7.11496648 16.5448995,7.45510055 C16.8850335,7.79523461 16.8850335,8.34670088 16.5448995,8.68683494 L16.5448995,8.68683494 L10.172,15.058 L15.6193548,15.0580645 C16.0633753,15.0580645 16.429792,15.3903258 16.4835365,15.8197799 L16.4903226,15.9290323 C16.4903226,16.4100545 16.100377,16.8 15.6193548,16.8 L15.6193548,16.8 L8.07096774,16.8 C7.58994554,16.8 7.2,16.4100545 7.2,15.9290323 L7.2,15.9290323 L7.2,8.96129032 C7.2,8.48026812 7.58994554,8.09032258 8.07096774,8.09032258 C8.55198994,8.09032258 8.94193548,8.48026812 8.94193548,8.96129032 L8.94193548,8.96129032 L8.941,13.827 Z" id="Combined-Shape" fill="#7F7F7F" transform="translate(12.000000, 12.000000) scale(-1, -1) translate(-12.000000, -12.000000) "></path>
                    </g>
                </g>
            </g>
        </g>
    </g>
</svg>