<?xml version="1.0" encoding="UTF-8"?>
<svg width="120px" height="120px" viewBox="0 0 120 120" version="1.1" xmlns="http://www.w3.org/2000/svg" xmlns:xlink="http://www.w3.org/1999/xlink">
    <title>6F83AC72-EC35-4DD2-95CF-8289CED52C96</title>
    <g id="Total-Flow" stroke="none" stroke-width="1" fill="none" fill-rule="evenodd" opacity="0.931761969">
        <g id="3.0-Dashboard_Sell_Failed" transform="translate(-146.000000, -258.000000)">
            <g id="Group" transform="translate(146.000000, 258.000000)">
                <circle id="Oval" fill="#000000" opacity="0.300000012" cx="60" cy="60" r="60"></circle>
                <g id="icon/emptystate/notifications" transform="translate(13.714286, 13.714286)" fill-rule="nonzero">
                    <path d="M43.1317176,33.6508216 C48.0989599,33.6508216 52.6685066,35.3743511 56.265671,38.2506927 C56.7746022,38.2239788 57.2871757,38.2102421 57.8029799,38.2102421 C73.3954886,38.2102421 86.0357143,50.7631641 86.0357143,66.2479782 C86.0357143,81.7327923 73.3954886,94.2857143 57.8029799,94.2857143 C45.8668571,94.2857143 35.66076,86.9297535 31.5305254,76.5336531 C25.0958517,76.0302436 17.9565675,74.6335438 9.46435613,71.9995217 L9.46435613,71.9995217 L8.29322048,71.6339927 L8.25,71.3709226 L8.25,54.4845903 C8.25,42.9981182 17.6609114,33.6508216 29.2286644,33.6508216 L29.2286644,33.6508216 Z M57.8029799,43.8177893 C45.328973,43.8177893 35.2167925,53.860127 35.2167925,66.2479782 C35.2167925,78.6358294 45.328973,88.6781671 57.8029799,88.6781671 C70.2769868,88.6781671 80.3891674,78.6358294 80.3891674,66.2479782 C80.3891674,53.860127 70.2769868,43.8177893 57.8029799,43.8177893 Z M36.1815852,-1.45206803e-10 C45.2300023,-1.45206803e-10 52.5663306,7.28565764 52.5663306,16.2701944 C52.5663306,25.2561158 45.2313965,32.543158 36.1815852,32.543158 C27.1317739,32.543158 19.7940514,25.2575003 19.7940514,16.2701944 C19.7940514,7.28565764 27.1331681,-1.45206803e-10 36.1815852,-1.45206803e-10 Z" id="Combined-Shape" fill="#090000"></path>
                    <g id="warning-(1)" transform="translate(38.892857, 47.142857)" fill="#D0021B">
                        <path d="M18.8571429,0 C20.8900052,0 22.7021733,1.05523348 23.6965926,2.77815518 L23.6965926,2.77815518 L37.0202574,26.188466 C37.970653,27.8682025 37.9484972,29.8712672 36.9319221,31.5294111 C35.9375028,33.1878354 34.1474906,34.1785714 32.1808077,34.1785714 L32.1808077,34.1785714 L5.53347802,34.1785714 C3.56679515,34.1785714 1.77678288,33.1878354 0.782363579,31.5294111 C-0.234211532,29.8712672 -0.256367268,27.8682025 0.694028281,26.188466 L0.694028281,26.188466 L14.0176931,2.77815518 C15.0121124,1.05523348 16.8242805,0 18.8571429,0 Z M18.8571429,24.5658482 C17.6294643,24.5658482 16.6386555,25.5198888 16.6386555,26.7020089 C16.6386555,27.8839437 17.6294643,28.8381696 18.8571429,28.8381696 C20.0848214,28.8381696 21.0756303,27.8839437 21.0756303,26.7020089 C21.0756303,25.5198888 20.0848214,24.5658482 18.8571429,24.5658482 Z M18.6907563,5.34040179 C17.9249833,5.34040179 17.3042017,5.96118344 17.3042017,6.72695641 L17.3042017,6.72695641 L17.3042017,20.8512122 L17.3105489,20.9847467 C17.3777365,21.6878703 17.9700288,22.2377668 18.6907563,22.2377668 C19.4565293,22.2377668 20.0773109,21.6169852 20.0773109,20.8512122 L20.0773109,20.8512122 L20.0773109,6.72695641 L20.0709637,6.59342194 C20.0037761,5.89029833 19.4114838,5.34040179 18.6907563,5.34040179 Z" id="Combined-Shape"></path>
                    </g>
                </g>
            </g>
        </g>
    </g>
</svg>