<?xml version="1.0" encoding="UTF-8"?>
<svg width="70px" height="70px" viewBox="0 0 70 70" version="1.1" xmlns="http://www.w3.org/2000/svg" xmlns:xlink="http://www.w3.org/1999/xlink">
    <title>62878515-D708-4DB4-89B1-0A36AF670D1B</title>
    <g id="Total-Flow" stroke="none" stroke-width="1" fill="none" fill-rule="evenodd" opacity="0.931761969">
        <g id="3.0-Dashboard_Sell_Refresh" transform="translate(-172.000000, -271.000000)" fill="#FFFFFF">
            <g id="Group-12" transform="translate(8.000000, 235.000000)">
                <g id="Group-13" transform="translate(41.000000, 36.000000)">
                    <g id="Group" transform="translate(123.000000, 0.000000)">
                        <circle id="Oval" opacity="0.300000012" cx="35" cy="35" r="35"></circle>
                        <g id="icon/emptystate/notifications" transform="translate(8.000000, 8.000000)" fill-rule="nonzero">
                            <path d="M25.1601686,19.6296459 C28.0577375,19.6296459 30.7233155,20.6350457 32.821665,22.312923 C33.1180802,22.2973327 33.4172989,22.2893079 33.718405,22.2893079 C42.814035,22.2893079 50.1875,29.6118457 50.1875,38.6446539 C50.1875,47.6774622 42.814035,55 33.718405,55 C26.7556878,55 20.8021461,50.709049 18.3928284,44.6446862 C14.639533,44.3510314 10.4748345,43.5362867 5.52087441,41.999721 L5.52087441,41.999721 L4.83771195,41.7864957 L4.8125,41.6330382 L4.8125,31.7826777 C4.8125,25.0822356 10.3021983,19.6296459 17.0500542,19.6296459 L17.0500542,19.6296459 Z M33.718405,25.5603771 C26.4419009,25.5603771 20.5431289,31.4184074 20.5431289,38.6446539 C20.5431289,45.8709005 26.4419009,51.7289308 33.718405,51.7289308 C40.994909,51.7289308 46.893681,45.8709005 46.893681,38.6446539 C46.893681,31.4184074 40.994909,25.5603771 33.718405,25.5603771 Z M21.1059247,-2.10585834e-11 C26.384168,-2.10585834e-11 30.6636928,4.24996696 30.6636928,9.49094674 C30.6636928,14.7327342 26.3849813,18.9835088 21.1059247,18.9835088 C15.8284947,18.9835088 11.54653,14.7335419 11.54653,9.49094674 C11.54653,4.24996696 15.8276814,-2.10585834e-11 21.1059247,-2.10585834e-11 Z" id="Combined-Shape"></path>
                            <g id="Group" transform="translate(26.125000, 30.937500)">
                                <path d="M7.90625,10.3125 C6.200975,10.3125 4.8125,9.0783 4.8125,7.5625 C4.8125,6.0467 6.200975,4.8125 7.90625,4.8125 C9.611525,4.8125 11,6.0467 11,7.5625 C11,9.0783 9.611525,10.3125 7.90625,10.3125 Z M7.90625,5.9125 C6.8828375,5.9125 6.05,6.6528 6.05,7.5625 C6.05,8.4722 6.8828375,9.2125 7.90625,9.2125 C8.9296625,9.2125 9.7625,8.4722 9.7625,7.5625 C9.7625,6.6528 8.9296625,5.9125 7.90625,5.9125 Z" id="Shape"></path>
                                <path d="M8.54135712,15.125 L6.58364288,15.125 C5.95030085,15.125 5.42497063,14.6747057 5.36237287,14.0766405 L5.20649218,12.5977671 C4.83458785,12.4406877 4.47986721,12.2452112 4.14478509,12.012501 L2.71117366,12.6256924 C2.13551976,12.8746923 1.45921848,12.6664166 1.14377487,12.1463093 L0.165531454,10.5394453 C-0.151139563,10.019338 -0.00139590419,9.36309524 0.51166024,9.01286637 L1.77466209,8.1518386 C1.75011395,7.97148819 1.73293025,7.77135741 1.73293025,7.56191822 C1.73293025,7.35247904 1.75011395,7.15118471 1.77466209,6.97199785 L0.51166024,6.11097007 C-0.00139590419,5.76074121 -0.151139563,5.10449842 0.165531454,4.58439111 L1.14377487,2.97752712 C1.46044588,2.4574198 2.13306494,2.25147127 2.71117366,2.49814409 L4.14478509,3.11133549 C4.47986721,2.87862528 4.83458785,2.6831487 5.20649218,2.52606931 L5.36237287,1.04719594 C5.42497063,0.450294253 5.95030085,0 6.58364288,0 L8.54135712,0 C9.17469915,0 9.70002937,0.450294253 9.76262713,1.04835949 L9.91850782,2.52723286 C10.2916396,2.68431225 10.6463602,2.88095238 10.9802149,3.11249904 L12.4138263,2.49930764 C12.9919351,2.25379837 13.6657815,2.4597469 13.9812251,2.97869067 L14.9594685,4.58555466 C15.2761396,5.10566197 15.1263959,5.76190476 14.6133398,6.11213363 L13.3503379,6.9731614 C13.3748861,7.15351181 13.3920698,7.35364259 13.3920698,7.56308178 C13.3920698,7.77252096 13.3748861,7.97381529 13.3503379,8.15300215 L14.6133398,9.01402993 C15.1263959,9.36425879 15.2761396,10.0205016 14.9594685,10.5406089 L13.9824525,12.1463093 C13.6657815,12.6652531 12.9943899,12.8735287 12.4150537,12.6256924 L10.9814423,12.012501 C10.6463602,12.2452112 10.2916396,12.4406877 9.91973523,12.5977671 L9.76262713,14.0778041 C9.70002937,14.6747057 9.17469915,15.125 8.54135712,15.125 L8.54135712,15.125 Z M4.23070358,10.7558658 C4.37185539,10.7558658 4.51177979,10.8024079 4.62470124,10.8920013 C5.04079223,11.2224498 5.50106987,11.4749404 5.99080528,11.6448188 C6.21173855,11.7216132 6.36761924,11.911272 6.39093998,12.1335103 L6.58487029,13.961449 L8.54258452,13.961449 L8.73528743,12.1335103 C8.75860816,11.911272 8.91448886,11.7216132 9.13542213,11.6448188 C9.62515754,11.4749404 10.0854352,11.2212863 10.5015262,10.8920013 C10.6831824,10.7488845 10.9335734,10.7163051 11.1471423,10.8082256 L12.919518,11.5668609 L13.8977615,9.95999692 L12.3291353,8.89185707 C12.1376598,8.76153935 12.0431494,8.53813755 12.0824264,8.3182264 C12.1278405,8.07271713 12.1646627,7.82255366 12.1646627,7.56424533 C12.1646627,7.305937 12.1278405,7.05577352 12.0824264,6.81026425 C12.041922,6.5903531 12.1376598,6.36811485 12.3291353,6.23663359 L13.8977615,5.16849373 L12.919518,3.56162974 L11.1471423,4.31910147 C10.932346,4.411022 10.681955,4.37844257 10.5002988,4.23532579 C10.0854352,3.9048773 9.62638494,3.65238672 9.13419472,3.48250827 C8.91326145,3.4057139 8.75738076,3.21605508 8.73406002,2.99381683 L8.54135712,1.16238749 L6.58364288,1.16238749 L6.39093998,2.99032618 C6.36761924,3.21256443 6.21173855,3.40222325 5.99080528,3.47901762 C5.50106987,3.64889607 5.04079223,3.9025502 4.62470124,4.23183514 C4.44427241,4.37495192 4.19388137,4.4086949 3.97908514,4.31561082 L2.20670937,3.55697554 L1.22846595,5.16383953 L2.79709215,6.23197938 C2.98856765,6.3622971 3.083078,6.5856989 3.04380097,6.80561005 C2.99838691,7.05111932 2.9615647,7.30128279 2.9615647,7.55959112 C2.9615647,7.81789945 2.99838691,8.06806293 3.04380097,8.3135722 C3.0843054,8.53348334 2.98856765,8.75572159 2.79709215,8.88720286 L1.22846595,9.95534272 L2.20670937,11.5622067 L3.97908514,10.804735 C4.060094,10.7721556 4.14478509,10.7558658 4.23070358,10.7558658 L4.23070358,10.7558658 Z" id="Shape"></path>
                            </g>
                        </g>
                    </g>
                </g>
            </g>
        </g>
    </g>
</svg>