<?xml version="1.0" encoding="UTF-8"?>
<svg width="20px" height="20px" viewBox="0 0 20 20" version="1.1" xmlns="http://www.w3.org/2000/svg" xmlns:xlink="http://www.w3.org/1999/xlink">
    <!-- Generator: sketchtool 59.1 (101010) - https://sketch.com -->
    <title>D9CBD59C-FA0B-4751-8DA6-27298DAF72A4</title>
    <desc>Created with sketchtool.</desc>
    <g id="Total-Flow" stroke="none" stroke-width="1" fill="none" fill-rule="evenodd">
        <g id="Navigation-2" transform="translate(-34.000000, -443.000000)" fill="#7F7F7F" fill-rule="nonzero">
            <g id="Group-24">
                <g id="Group-23" transform="translate(32.000000, 441.000000)">
                    <g id="icon/40px/sell-copy-5-icon/40px/settings">
                        <g id="settings" transform="translate(2.400000, 2.400000)">
                            <path d="M10.4016703,4.00835052e-05 C10.9828812,4.00835052e-05 11.4759084,0.416908551 11.5721088,0.990102693 L11.5721088,0.990102693 L11.7965764,2.32087511 C12.2655535,2.46116738 12.7184971,2.64955986 13.151399,2.87803585 L13.151399,2.87803585 L14.2657205,2.08438242 C14.4661381,1.9400818 14.7026308,1.86392313 14.9511485,1.86392313 C15.2678082,1.86392313 15.5644262,1.988182 15.7888938,2.21264964 L15.7888938,2.21264964 L16.9833824,3.40713813 C17.3962425,3.8159899 17.4483511,4.46133435 17.1116496,4.93431973 L17.1116496,4.93431973 L16.3179961,6.04463286 C16.5384554,6.46150133 16.7188312,6.89841155 16.8591235,7.35135517 L16.8591235,7.35135517 L18.2059294,7.57983116 C18.7791235,7.67603157 19.195992,8.1690587 19.188089,8.75026955 L19.188089,8.75026955 L19.188089,10.4377852 C19.188089,11.018996 18.7711068,11.5120231 18.1979127,11.6082236 L18.1979127,11.6082236 L16.8511068,11.8326912 C16.7148229,12.2816265 16.5304387,12.7185367 16.3099794,13.1394135 L16.3099794,13.1394135 L17.1036329,14.253735 C17.4403344,14.7267204 17.3842175,15.3720648 16.9753657,15.7809166 L16.9753657,15.7809166 L15.7808771,16.9754051 C15.5564095,17.1998727 15.2597915,17.3241316 14.9431318,17.3241316 L14.9431318,17.3241316 L14.7952397,17.3150567 C14.600017,17.2909424 14.4140295,17.2191128 14.2536955,17.1036723 L14.2536955,17.1036723 L13.1433823,16.3100189 C12.7265138,16.5304782 12.2896036,16.7108539 11.8366599,16.8511462 L11.8366599,16.8511462 L11.6081839,18.197952 C11.5119835,18.7711462 11.0189564,19.1880146 10.4377455,19.1880146 L10.4377455,19.1880146 L8.74622146,19.1880146 C8.1650106,19.1880146 7.67198345,18.7711462 7.57578303,18.197952 L7.57578303,18.197952 L7.35131538,16.8511462 C6.91440514,16.7148623 6.48951996,16.5425032 6.08467653,16.3300606 L6.08467653,16.3300606 L4.95832995,17.1317307 C4.75791241,17.2760314 4.52141971,17.35219 4.27290196,17.35219 C3.95624225,17.35219 3.65962429,17.2279312 3.43515664,17.0034635 L3.43515664,17.0034635 L2.2406681,15.808975 C1.82780797,15.4001233 1.77569941,14.7547788 2.11240088,14.2817934 L2.11240088,14.2817934 L2.90204599,13.1835054 C2.67757834,12.7666369 2.4931942,12.3297267 2.35290192,11.8807914 L2.35290192,11.8807914 L0.99006265,11.6483071 C0.416868484,11.5521066 1.1439738e-13,11.0590795 1.1439738e-13,10.4778687 L1.1439738e-13,10.4778687 L1.1439738e-13,8.79035305 C1.1439738e-13,8.20914221 0.416868484,7.71611508 0.99006265,7.61991466 L0.99006265,7.61991466 L2.32083512,7.39544703 C2.45711905,6.9425034 2.63348648,6.50559318 2.85394578,6.08471637 L2.85394578,6.08471637 L2.05227561,4.95836983 C1.71557415,4.48538446 1.77169106,3.84004 2.18054284,3.43118824 L2.18054284,3.43118824 L3.37903973,2.23669974 C3.59949903,2.01223211 3.90012534,1.88797324 4.21678505,1.88797324 C4.4653028,1.88797324 4.70580385,1.9641319 4.90622139,2.10843252 L4.90622139,2.10843252 L6.00851786,2.90208595 C6.42538635,2.67761832 6.86229658,2.49323419 7.31123187,2.35294191 L7.31123187,2.35294191 L7.54371622,0.990102693 C7.63991664,0.416908551 8.13294379,4.00835052e-05 8.71415466,4.00835052e-05 L8.71415466,4.00835052e-05 Z M10.4096869,1.07828646 L8.72217125,1.07828646 C8.67006269,1.07828646 8.62597083,1.11436162 8.61795413,1.16647018 L8.61795413,1.16647018 L8.32935288,2.86200256 C8.29327772,3.0704368 8.13695204,3.23878753 7.93252615,3.29490444 C7.34329858,3.44722177 6.77812113,3.68772282 6.25703552,4.00037418 C6.07265139,4.10859965 5.84016704,4.10058295 5.66379961,3.97632407 L5.66379961,3.97632407 L4.28091859,2.99026978 C4.26488519,2.97824473 4.24484343,2.97022803 4.22079333,2.97022803 C4.20075158,2.97022803 4.17269312,2.97423638 4.14463467,3.00229483 L4.14463467,3.00229483 L2.95014613,4.19678337 C2.91407098,4.23285852 2.91006263,4.29298378 2.93812108,4.33306729 L2.93812108,4.33306729 L3.93620042,5.73599006 C4.0604593,5.90834915 4.07248435,6.13682514 3.96425888,6.32120928 C3.65561587,6.84630323 3.42713988,7.41548904 3.2788309,8.0047166 C3.22672234,8.21315084 3.05436325,8.36947652 2.84192066,8.40555168 L2.84192066,8.40555168 L1.17043839,8.68613624 C1.11832983,8.69415294 1.08225467,8.7382448 1.08225467,8.79035336 L1.08225467,8.79035336 L1.08225467,10.477869 C1.08225467,10.5299776 1.11832983,10.5740695 1.17043839,10.5820862 L1.17043839,10.5820862 L2.86597077,10.8706874 C3.07440501,10.9067626 3.24275574,11.0630882 3.29887265,11.2675141 C3.45118998,11.8567417 3.69169103,12.4219192 4.00434239,12.9430048 C4.11256786,13.1273889 4.10455116,13.3598732 3.98029228,13.5362407 L3.98029228,13.5362407 L2.99423799,14.9191217 C2.96617954,14.9632136 2.97018789,15.0193305 3.00626304,15.0554056 L3.00626304,15.0554056 L4.20075158,16.2498942 C4.22881003,16.2779526 4.26087684,16.281961 4.27691024,16.281961 C4.29695199,16.281961 4.31699375,16.2739443 4.3370355,16.2619192 L4.3370355,16.2619192 L5.73995827,15.2638399 C5.83215034,15.1956979 5.94438416,15.1636311 6.05260963,15.1636311 C6.1448017,15.1636311 6.24100212,15.1876812 6.32517749,15.2357814 C6.84225474,15.5323994 7.39540714,15.7608754 7.96860131,15.9091843 C8.1730272,15.9612929 8.32935288,16.1296436 8.36542803,16.3420862 L8.36542803,16.3420862 L8.64601259,18.0255935 C8.65402929,18.0777021 8.69812115,18.1137773 8.75022971,18.1137773 L8.75022971,18.1137773 L10.4377454,18.1137773 C10.4898539,18.1137773 10.5339458,18.0777021 10.5419625,18.0255935 L10.5419625,18.0255935 L10.8265554,16.3420862 C10.8586222,16.133652 11.0149479,15.9612929 11.2233821,15.9091843 C11.8126097,15.756867 12.3777872,15.5243827 12.9028811,15.2117313 C13.0872652,15.1035058 13.3197496,15.1115225 13.4921087,15.2357814 L13.4921087,15.2357814 L14.8830064,16.225844 C14.8990398,16.2378691 14.9190816,16.2458858 14.9431317,16.2458858 C14.9631734,16.2458858 14.9912319,16.2418774 15.0192903,16.213819 L15.0192903,16.213819 L16.2137789,15.0193305 C16.249854,14.9832553 16.2538624,14.92313 16.2258039,14.8830465 L16.2258039,14.8830465 L15.2357413,13.4881405 C15.1114824,13.311773 15.1034657,13.083297 15.2116912,12.8989129 C15.5243425,12.3738189 15.7568269,11.8086415 15.9091442,11.2194139 C15.9612528,11.014988 16.1296035,10.8586624 16.3420461,10.8225872 L16.3420461,10.8225872 L18.0255534,10.5420026 C18.077662,10.5339859 18.1137371,10.4898941 18.1137371,10.4377855 L18.1137371,10.4377855 L18.1177455,10.4377855 L18.1177455,8.75026985 C18.1177455,8.69816129 18.0816703,8.65406943 18.0295618,8.64605273 L18.0295618,8.64605273 L16.3460544,8.36145982 C16.1376202,8.32939302 15.9652611,8.17306734 15.9131525,7.9646331 C15.7608352,7.37540553 15.5283509,6.81022807 15.2156995,6.28513412 C15.107474,6.10074999 15.1154907,5.86826564 15.2397496,5.69590656 L15.2397496,5.69590656 L16.2298123,4.30500884 C16.2578707,4.26091698 16.2538624,4.20480007 16.2177872,4.16872491 L16.2177872,4.16872491 L15.0232987,2.97423638 C14.9952402,2.94617792 14.9631734,2.94216957 14.94714,2.94216957 C14.9270983,2.94216957 14.9070565,2.95018627 14.8870147,2.96221133 L14.8870147,2.96221133 L13.5041337,3.95628232 C13.3277663,4.08054119 13.0992903,4.0885579 12.9149062,3.98033242 C12.3777872,3.66367271 11.8005846,3.42718002 11.1953237,3.27486269 C10.9868894,3.22275413 10.8305638,3.05039504 10.7944886,2.83795245 L10.7944886,2.83795245 L10.513904,1.16647018 C10.5058873,1.11436162 10.4617955,1.07828646 10.4096869,1.07828646 L10.4096869,1.07828646 Z M9.59599171,5.45139716 C11.8807516,5.45139716 13.736618,7.30726356 13.736618,9.5920235 C13.736618,11.8767834 11.8807516,13.7326498 9.59599171,13.7326498 C7.31123177,13.7326498 5.45536537,11.8767834 5.45536537,9.5920235 C5.45536537,7.30726356 7.31123177,5.45139716 9.59599171,5.45139716 Z M9.59599178,6.53365183 C7.90847605,6.53365183 6.53762004,7.90450784 6.53762004,9.59202357 C6.53762004,11.2795393 7.90847605,12.6503953 9.59599178,12.6503953 C11.2835075,12.6503953 12.6543635,11.2795393 12.6543635,9.59202357 C12.6543635,7.90450784 11.2835075,6.53365183 9.59599178,6.53365183 Z" id="Combined-Shape"></path>
                        </g>
                    </g>
                </g>
            </g>
        </g>
    </g>
</svg>