<?xml version="1.0" encoding="UTF-8"?>
<svg width="16px" height="13px" viewBox="0 0 16 13" version="1.1" xmlns="http://www.w3.org/2000/svg" xmlns:xlink="http://www.w3.org/1999/xlink">
    <!-- Generator: sketchtool 58 (101010) - https://sketch.com -->
    <title>A0F81CA8-C9CC-4EEC-B1B1-253DB38D899C</title>
    <desc>Created with sketchtool.</desc>
    <defs>
        <path d="M10.0701443,8.2173913 L10.5701443,11.1242236 L8.47619048,11.1242236 L8.47619048,14.0310559 L10.6201433,14.0310559 C10.7486514,14.0310559 10.8571429,14.1405248 10.8571429,14.2755614 L10.8571429,14.7554945 C10.8571429,14.8926039 10.75047,15 10.6188821,15 L5.38111776,15 C5.24939743,15 5.14285714,14.8905311 5.14285714,14.7554945 L5.14285714,14.2755614 C5.14285714,14.138452 5.2489654,14.0310559 5.37985657,14.0310559 L7.52380952,14.0310559 L7.52380952,11.1242236 L5.42985574,11.1242236 L5.92985574,8.2173913 L10.0701443,8.2173913 Z M15.1689769,8.2173913 L15.9274675,9.95693426 C16.1676356,10.5077424 15.785971,11.0434783 15.156865,11.0434783 L11.3808512,11.0434783 L10.8571429,8.2173913 L15.1689769,8.2173913 Z M5.14285714,8.2173913 L4.61919193,11.0434783 L0.843489098,11.0434783 C0.212519095,11.0434783 -0.167787331,10.5090937 0.0729501964,9.95693426 L0.831378367,8.2173913 L5.14285714,8.2173913 Z M5.71428571,4.82608696 L5.27212124,7.08695652 L1.14285714,7.08695652 L2.18324415,4.82608696 L5.71428571,4.82608696 Z M9.3390327,4.82608696 L9.71428571,7.08695652 L6.28571429,7.08695652 L6.6609673,4.82608696 L9.3390327,4.82608696 Z M13.8167559,4.82608696 L14.8571429,7.08695652 L10.7278788,7.08695652 L10.2857143,4.82608696 L13.8167559,4.82608696 Z M5.71428571,2 L5.38160178,3.69565217 L2.28571429,3.69565217 L2.85660466,2.45900287 C2.97987242,2.19198301 3.3019386,2 3.62451105,2 L5.71428571,2 Z M9.35357478,2 L9.71428571,3.69565217 L6.85714286,3.69565217 L7.2178538,2 L9.35357478,2 Z M12.3754891,2 C12.6999098,2 13.0192394,2.19005908 13.1433953,2.45900287 L13.7142857,3.69565217 L10.6183982,3.69565217 L10.2857143,2 L12.3754891,2 Z" id="path-1"></path>
    </defs>
    <g id="Total-Flow" stroke="none" stroke-width="1" fill="#ffffff" fill-rule="evenodd">
        <g id="3.0-Dashboard_Sell-4" transform="translate(-58.000000, -344.000000)">
            <g id="Group-12" transform="translate(8.000000, 235.000000)">
                <g id="Group-11" transform="translate(32.000000, 72.000000)">
                    <g id="Group-12-Copy" transform="translate(0.000000, 27.000000)">
                        <g id="icon/select_state-icon/16px/solar" transform="translate(18.000000, 8.000000)">
                            <mask id="mask-2" fill="#ffffff">
                                <use xlink:href="#path-1"></use>
                            </mask>
                            <use id="Mask" fill="#ffffff" opacity="0.5" xlink:href="#path-1"></use>
                        </g>
                    </g>
                </g>
            </g>
        </g>
    </g>
</svg>