<?xml version="1.0" encoding="UTF-8"?>
<svg width="12px" height="10px" viewBox="0 0 12 10" version="1.1" xmlns="http://www.w3.org/2000/svg" xmlns:xlink="http://www.w3.org/1999/xlink">
    <!-- Generator: sketchtool 58 (101010) - https://sketch.com -->
    <title>BB338979-6A5A-4EF7-B7AA-860380F8D18B</title>
    <desc>Created with sketchtool.</desc>
    <defs>
        <path d="M7.5526082,5.7826087 L7.92760821,8.01863354 L6.35714286,8.01863354 L6.35714286,10.2546584 L7.9651075,10.2546584 C8.06148857,10.2546584 8.14285714,10.3388652 8.14285714,10.4427396 L8.14285714,10.8119188 C8.14285714,10.9173876 8.0628525,11 7.96416161,11 L4.03583832,11 C3.93704807,11 3.85714286,10.9157932 3.85714286,10.8119188 L3.85714286,10.4427396 C3.85714286,10.3372707 3.93672405,10.2546584 4.03489243,10.2546584 L5.64285714,10.2546584 L5.64285714,8.01863354 L4.0723918,8.01863354 L4.4473918,5.7826087 L7.5526082,5.7826087 Z M11.3767327,5.7826087 L11.9456006,7.12071866 C12.1257267,7.54441721 11.8394782,7.95652174 11.3676488,7.95652174 L8.53563841,7.95652174 L8.14285714,5.7826087 L11.3767327,5.7826087 Z M3.85714286,5.7826087 L3.46439395,7.95652174 L0.632616824,7.95652174 C0.159389321,7.95652174 -0.125840498,7.5454567 0.0547126473,7.12071866 L0.623533776,5.7826087 L3.85714286,5.7826087 Z M4.28571429,3.17391304 L3.95409093,4.91304348 L0.857142857,4.91304348 L1.63743311,3.17391304 L4.28571429,3.17391304 Z M7.00427452,3.17391304 L7.28571429,4.91304348 L4.71428571,4.91304348 L4.99572548,3.17391304 L7.00427452,3.17391304 Z M10.3625669,3.17391304 L11.1428571,4.91304348 L8.04590907,4.91304348 L7.71428571,3.17391304 L10.3625669,3.17391304 Z M4.28571429,1 L4.03620134,2.30434783 L1.71428571,2.30434783 L2.1424535,1.35307913 C2.23490432,1.14767924 2.47645395,1 2.71838329,1 L4.28571429,1 Z M7.01518108,1 L7.28571429,2.30434783 L5.14285714,2.30434783 L5.41339035,1 L7.01518108,1 Z M9.28161679,1 C9.52493237,1 9.76442952,1.14619929 9.8575465,1.35307913 L10.2857143,2.30434783 L7.96379866,2.30434783 L7.71428571,1 L9.28161679,1 Z" id="path-1"></path>
    </defs>
    <g id="Total-Flow" stroke="none" stroke-width="1" fill="none" fill-rule="evenodd">
        <g id="3.0-Dashboard_Sell-4" transform="translate(-96.000000, -663.000000)">
            <g id="Latest-Transactions" transform="translate(8.000000, 562.000000)">
                <g id="Group-5" transform="translate(0.000000, 35.000000)">
                    <g id="Group-8" transform="translate(88.000000, 64.000000)">
                        <g id="icon/12px/solar" transform="translate(0.000000, 1.000000)">
                            <mask id="mask-2" fill="white">
                                <use xlink:href="#path-1"></use>
                            </mask>
                            <use id="Mask" fill="#0048A8" opacity="0.5" xlink:href="#path-1"></use>
                        </g>
                    </g>
                </g>
            </g>
        </g>
    </g>
</svg>