<?xml version="1.0" encoding="UTF-8"?>
<svg width="105px" height="40px" viewBox="0 0 105 40" version="1.1" xmlns="http://www.w3.org/2000/svg" xmlns:xlink="http://www.w3.org/1999/xlink">
    <!-- Generator: sketchtool 62 (101010) - https://sketch.com -->
    <title>10237116-BA92-4F39-8291-CA2788794A24</title>
    <desc>Created with sketchtool.</desc>
    <g id="Login-for-P2P-&amp;-DR_Customers" stroke="none" stroke-width="1" fill="none" fill-rule="evenodd">
        <g id="Register-for-P2P-&amp;-DR" transform="translate(-154.000000, -36.000000)" fill-rule="nonzero">
            <g id="Splash-Screen_Icon" transform="translate(154.000000, 36.000000)">
                <path d="M1.12349772,21.2157876 L6.38193035,21.2157876 L6.38193035,39.1767197 L1.12349772,39.1767197 L1.12349772,21.2157876 Z M8.4423776,21.2157876 L15.3455182,21.2157876 L18.0094819,32.1442674 L20.6618631,21.2157876 L27.5418389,21.2157876 L27.5418389,39.1767197 L23.2563321,39.1767197 L23.2563321,25.479365 L19.9321687,39.1767197 L16.0520477,39.1767197 L12.7394668,25.479365 L12.7394668,39.1767197 L8.4423776,39.1767197 L8.4423776,21.2157876 Z M29.2200652,21.2157876 L37.9416506,21.2157876 C39.8411821,21.2157876 41.2638789,21.6935975 42.2097837,22.6492317 C43.1556886,23.6048659 43.628634,24.9647865 43.628634,26.7290342 C43.628634,28.5422888 43.11322,29.9593832 42.0823768,30.9803598 C41.0515335,32.0013365 39.4782664,32.5118172 37.3625281,32.5118172 L34.4900803,32.5118172 L34.4900803,39.1767197 L29.2200652,39.1767197 L29.2200652,21.2157876 Z M34.4900803,28.8730745 L35.7757324,28.8730745 C36.7872714,28.8730745 37.4976547,28.6872595 37.9069033,28.315624 C38.3161519,27.9439885 38.5207732,27.4682205 38.5207732,26.8883057 C38.5207732,26.3247266 38.3431774,25.8469167 37.9879804,25.4548616 C37.6327835,25.0628066 36.9648689,24.866782 35.9842165,24.866782 L34.4900803,24.866782 L34.4900803,28.8730745 Z M53.1597619,36.2118182 L47.1832173,36.2118182 L46.3608633,39.1767197 L40.9981887,39.1767197 L47.380119,21.2157876 L53.1018497,21.2157876 L59.48378,39.1767197 L53.9936984,39.1767197 L53.1597619,36.2118182 Z M52.0594291,32.3280423 L50.1830721,25.871418 L48.3182975,32.3280423 L52.0594291,32.3280423 Z M70.3932196,31.837976 L74.9914526,33.3081751 C74.6825857,34.6721999 74.1961276,35.8115928 73.5320638,36.7263879 C72.868,37.641183 72.0437238,38.3313529 71.0592106,38.7969183 C70.0746973,39.2624837 68.8218748,39.4952628 67.3007053,39.4952628 C65.4552256,39.4952628 63.9475917,39.2114356 62.7777583,38.6437725 C61.6079249,38.0761095 60.5983314,37.0776093 59.7489474,35.6482419 C58.8995634,34.2188746 58.4748778,32.3893118 58.4748778,30.1594987 C58.4748778,27.1864146 59.2219384,24.901503 60.716082,23.3046955 C62.2102257,21.7078879 64.3240018,20.9094961 67.0574738,20.9094961 C69.1963771,20.9094961 70.877746,21.3668868 72.1016311,22.281682 C73.3255162,23.1964771 74.2347295,24.6013199 74.8292983,26.4962526 L70.196318,27.5866503 C70.0341629,27.0394068 69.8642886,26.6391899 69.6866901,26.3859877 C69.3932666,25.9612614 69.0342142,25.6345538 68.6095222,25.405855 C68.1848302,25.1771562 67.7099545,25.0628085 67.1848808,25.0628085 C65.9957432,25.0628085 65.0845995,25.5692054 64.4514224,26.5820143 C63.9726787,27.3334531 63.7333105,28.5136845 63.7333105,30.1227437 C63.7333105,32.1156902 64.0190081,33.4817365 64.5904118,34.2209236 C65.1618156,34.9601108 65.9648575,35.3296988 66.9995616,35.3296988 C68.003379,35.3296988 68.7620219,35.0315781 69.2755131,34.4353277 C69.7890044,33.8390773 70.1615695,32.973302 70.3932196,31.837976 Z M74.7006623,21.2157876 L90.649697,21.2157876 L90.649697,25.6508882 L85.2986047,25.6508882 L85.2986047,39.1767197 L80.0517546,39.1767197 L80.0517546,25.6508882 L74.7006623,25.6508882 L74.7006623,21.2157876 Z" id="IMPACT" fill="#76C079"></path>
                <path d="M-1.49756542e-13,12.325169 L4.99203627,11.9943742 C5.10013968,12.8519946 5.32020404,13.5054099 5.65223596,13.9546396 C6.19275303,14.681575 6.96490869,15.0450372 7.9687261,15.0450372 C8.71772833,15.0450372 9.29491469,14.8592223 9.70030249,14.4875868 C10.1056903,14.1159512 10.3083812,13.6851056 10.3083812,13.1950367 C10.3083812,12.7294714 10.1153422,12.3129191 9.72925862,11.9453675 C9.34317499,11.5778159 8.44747443,11.230689 7.04213005,10.9039765 C4.74107166,10.356733 3.10024088,9.6298085 2.11958848,8.72318121 C1.13121441,7.81655391 0.63703479,6.66082563 0.63703479,5.25596171 C0.63703479,4.33299878 0.889915769,3.46109777 1.39568531,2.64023251 C1.90145486,1.81936726 2.66202818,1.17411967 3.67742811,0.704470392 C4.69282803,0.234821116 6.08463861,-4.90012214e-14 7.8529016,-4.90012214e-14 C10.0226915,-4.90012214e-14 11.6770351,0.426761854 12.8159817,1.28029837 C13.9549284,2.13383488 14.632495,3.4917135 14.8487018,5.35397498 L9.90299538,5.66026646 C9.77172695,4.85165292 9.4956813,4.26357917 9.07485015,3.89602756 C8.654019,3.52847595 8.07297187,3.34470291 7.33169131,3.34470291 C6.72167919,3.34470291 6.26224657,3.48151173 5.95337968,3.75513348 C5.64451278,4.02875524 5.49008165,4.36158864 5.49008165,4.75364369 C5.49008165,5.03951716 5.61748733,5.29679943 5.87230252,5.52549821 C6.11939604,5.7623648 6.70623434,5.98289246 7.63283503,6.18708779 C9.92617174,6.70982786 11.5689329,7.23868585 12.5611678,7.77367763 C13.5534027,8.30866942 14.2753683,8.97229431 14.7270861,9.76457222 C15.1788039,10.5568501 15.4046595,11.4430446 15.4046595,12.4231822 C15.4046595,13.5748439 15.1035188,14.6366438 14.5012283,15.6086136 C13.8989379,16.5805834 13.0572882,17.3177175 11.9762541,17.820038 C10.8952199,18.3223585 9.53236518,18.573515 7.88764895,18.573515 C4.99974346,18.573515 2.9998603,17.9854413 1.88793947,16.8092761 C0.77601864,15.633111 0.146711776,14.1384235 -1.49756542e-13,12.325169 Z M32.684447,0.306291475 L32.684447,11.0142414 C32.684447,12.0760572 32.5280855,13.0786413 32.2153577,14.0220237 C31.90263,14.9654062 31.4123112,15.790343 30.7443865,16.4968588 C30.0764618,17.2033747 29.3757306,17.6995619 28.6421717,17.9854354 C27.6229109,18.3856583 26.3990442,18.5857667 24.9705348,18.5857667 C24.1443159,18.5857667 23.2428241,18.524509 22.2660326,18.4019918 C21.289241,18.2794746 20.4726864,18.0364858 19.8163442,17.6730181 C19.1600021,17.3095504 18.559651,16.7929439 18.0152731,16.1231832 C17.4708952,15.4534225 17.0983301,14.7632526 16.8975666,14.0526529 C16.5732564,12.909159 16.4111037,11.8963653 16.4111037,11.0142414 L16.4111037,0.306291475 L23.227,0.306 L20.5163094,10.7407695 L23.9763819,10.1042974 L22.9616804,16.0842269 L28.5398855,7.80310755 L25.040775,7.81742585 L28.61,0.306 L32.684447,0.306291475 Z M33.5982316,12.325169 L38.5902679,11.9943742 C38.6983713,12.8519946 38.9184357,13.5054099 39.2504676,13.9546396 C39.7909846,14.681575 40.5631403,15.0450372 41.5669577,15.0450372 C42.3159599,15.0450372 42.8931463,14.8592223 43.2985341,14.4875868 C43.7039219,14.1159512 43.9066128,13.6851056 43.9066128,13.1950367 C43.9066128,12.7294714 43.7135739,12.3129191 43.3274902,11.9453675 C42.9414066,11.5778159 42.045706,11.230689 40.6403617,10.9039765 C38.3393033,10.356733 36.6984725,9.6298085 35.7178201,8.72318121 C34.729446,7.81655391 34.2352664,6.66082563 34.2352664,5.25596171 C34.2352664,4.33299878 34.4881474,3.46109777 34.9939169,2.64023251 C35.4996865,1.81936726 36.2602598,1.17411967 37.2756597,0.704470392 C38.2910596,0.234821116 39.6828702,-4.90012214e-14 41.4511332,-4.90012214e-14 C43.6209232,-4.90012214e-14 45.2752667,0.426761854 46.4142134,1.28029837 C47.55316,2.13383488 48.2307266,3.4917135 48.4469335,5.35397498 L43.501227,5.66026646 C43.3699586,4.85165292 43.0939129,4.26357917 42.6730818,3.89602756 C42.2522506,3.52847595 41.6712035,3.34470291 40.9299229,3.34470291 C40.3199108,3.34470291 39.8604782,3.48151173 39.5516113,3.75513348 C39.2427444,4.02875524 39.0883133,4.36158864 39.0883133,4.75364369 C39.0883133,5.03951716 39.2157189,5.29679943 39.4705341,5.52549821 C39.7176277,5.7623648 40.304466,5.98289246 41.2310666,6.18708779 C43.5244034,6.70982786 45.1671645,7.23868585 46.1593994,7.77367763 C47.1516343,8.30866942 47.8735999,8.97229431 48.3253177,9.76457222 C48.7770356,10.5568501 49.0028911,11.4430446 49.0028911,12.4231822 C49.0028911,13.5748439 48.7017504,14.6366438 48.0994599,15.6086136 C47.4971695,16.5805834 46.6555198,17.3177175 45.5744857,17.820038 C44.4934515,18.3223585 43.1305968,18.573515 41.4858806,18.573515 C38.5979751,18.573515 36.5980919,17.9854413 35.4861711,16.8092761 C34.3742503,15.633111 33.7449434,14.1384235 33.5982316,12.325169 Z M48.8047604,0.306291475 L64.7537951,0.306291475 L64.7537951,4.74139203 L59.4027029,4.74139203 L59.4027029,18.2672236 L54.1558527,18.2672236 L54.1558527,4.74139203 L48.8047604,4.74139203 L48.8047604,0.306291475 Z M74.3196704,15.3023221 L68.3431259,15.3023221 L67.5207719,18.2672236 L62.1580972,18.2672236 L68.5400275,0.306291475 L74.2617582,0.306291475 L80.6436885,18.2672236 L75.1536069,18.2672236 L74.3196704,15.3023221 Z M73.2193376,11.4185462 L71.3429806,4.96192189 L69.478206,11.4185462 L73.2193376,11.4185462 Z M80.885691,0.306291475 L86.1441237,0.306291475 L86.1441237,18.2672236 L80.885691,18.2672236 L80.885691,0.306291475 Z M88.2972305,0.306291475 L93.1966072,0.306291475 L99.59012,10.2423869 L99.59012,0.306291475 L104.535826,0.306291475 L104.535826,18.2672236 L99.59012,18.2672236 L93.2313545,8.40463807 L93.2313545,18.2672236 L88.2972305,18.2672236 L88.2972305,0.306291475 Z" id="SUSTAIN" fill="#FFFFFF"></path>
            </g>
        </g>
    </g>
</svg>