<?xml version="1.0" encoding="UTF-8"?>
<svg width="12px" height="12px" viewBox="0 0 12 12" version="1.1" xmlns="http://www.w3.org/2000/svg" xmlns:xlink="http://www.w3.org/1999/xlink">
    <!-- Generator: sketchtool 58 (101010) - https://sketch.com -->
    <title>8BC6881A-4001-4B7E-85C3-78DC235B24A9</title>
    <desc>Created with sketchtool.</desc>
    <g id="Total-Flow" stroke="none" stroke-width="1" fill="none" fill-rule="evenodd" opacity="0.5">
        <g id="3.0-Dashboard_Sell-4" transform="translate(-243.000000, -661.000000)" fill="#0048A8">
            <g id="Latest-Transactions" transform="translate(8.000000, 562.000000)">
                <g id="Group-5" transform="translate(0.000000, 35.000000)">
                    <g id="Group-14" transform="translate(235.000000, 64.000000)">
                        <g id="timer-blue-copy-4-icon/12px/timer">
                            <g id="Group-3">
                                <path d="M6,0 C9.32,0 12,2.68 12,6 C12,9.32 9.32,12 6,12 C2.68,12 0,9.32 0,6 C0,2.68 2.68,0 6,0 Z M6,0.933333333 C3.2,0.933333333 0.933333333,3.2 0.933333333,6 C0.933333333,8.8 3.2,11.0666667 6,11.0666667 C8.8,11.0666667 11.0666667,8.8 11.0666667,6 C11.0666667,3.2 8.8,0.933333333 6,0.933333333 Z M5.49295775,3 C5.76521079,3 5.98591549,3.2207047 5.98591549,3.49295775 L5.98591549,3.49295775 L5.98591549,6.32093023 L7.65135776,7.97088002 C7.65357404,7.97307568 7.65576892,7.97529284 7.65794209,7.97753118 C7.84311035,8.16825254 7.83860868,8.47297128 7.64788732,8.65813953 C7.45249446,8.84784328 7.14107032,8.8457945 6.94819029,8.6535364 L6.94819029,8.6535364 L5,6.71162791 L5,3.49295775 C5,3.2207047 5.2207047,3 5.49295775,3 Z" id="Combined-Shape"></path>
                            </g>
                        </g>
                    </g>
                </g>
            </g>
        </g>
    </g>
</svg>